<svg width="37" height="36" viewBox="0 0 37 36" fill="none" xmlns="http://www.w3.org/2000/svg">
<circle cx="18.2285" cy="18" r="18" fill="#4B44F6" fill-opacity="0.9"/>
<path d="M31.2281 18C31.2281 22.4183 27.5899 26 23.1019 26C18.6139 26 14.9756 22.4183 14.9756 18C14.9756 13.5817 18.6139 10 23.1019 10C27.5899 10 31.2281 13.5817 31.2281 18Z" stroke="white" stroke-width="1.5" stroke-miterlimit="10"/>
<path d="M11.9926 13.5918H7.08984" stroke="white" stroke-width="1.5" stroke-miterlimit="10"/>
<path d="M11.9926 22.4082H7.08984" stroke="white" stroke-width="1.5" stroke-miterlimit="10"/>
<path d="M11.9927 18H5.22852" stroke="white" stroke-width="1.5" stroke-miterlimit="10"/>
<path d="M21.4346 19.6418C21.4346 20.5483 22.1811 21.2832 23.1019 21.2832C24.0227 21.2832 24.7692 20.5483 24.7692 19.6418C24.7692 18.7353 24.0227 18.0004 23.1019 18.0004C22.1811 18.0004 21.4346 17.2656 21.4346 16.359C21.4346 15.4525 22.1811 14.7177 23.1019 14.7177C24.0227 14.7177 24.7692 15.4525 24.7692 16.359" stroke="white" stroke-width="1.5" stroke-miterlimit="10"/>
<path d="M23.1025 14.7168V12.8163" stroke="white" stroke-width="1.5" stroke-miterlimit="10"/>
<path d="M23.1025 21.2831V23.1836" stroke="white" stroke-width="1.5" stroke-miterlimit="10"/>
</svg>
