<svg width="16" height="11" viewBox="0 0 16 11" fill="none" xmlns="http://www.w3.org/2000/svg">
<path d="M15 4.71485H3.14L6.77 1.28944C6.93974 1.129 7.0214 0.922153 6.99702 0.714408C6.97264 0.506664 6.84422 0.315036 6.64 0.181682C6.43578 0.0483278 6.1725 -0.0158293 5.90808 0.00332445C5.64365 0.0224782 5.39974 0.123374 5.23 0.283816L0.23 4.99768C0.196361 5.03517 0.166279 5.07456 0.14 5.11553C0.14 5.15481 0.14 5.17838 0.0700002 5.21766C0.0246737 5.30774 0.000941121 5.40363 0 5.50049C0.000941121 5.59735 0.0246737 5.69324 0.0700002 5.78332C0.0700002 5.82261 0.0699999 5.84617 0.14 5.88546C0.166279 5.92642 0.196361 5.96581 0.23 6.0033L5.23 10.7172C5.32402 10.8059 5.44176 10.8772 5.57485 10.9261C5.70793 10.9749 5.85309 11.0002 6 11C6.23365 11.0004 6.46009 10.9364 6.64 10.8193C6.74126 10.7533 6.82496 10.6723 6.88631 10.5809C6.94766 10.4895 6.98546 10.3895 6.99754 10.2866C7.00961 10.1837 6.99573 10.0799 6.95669 9.98127C6.91764 9.88259 6.8542 9.79093 6.77 9.71154L3.14 6.28614H15C15.2652 6.28614 15.5196 6.20336 15.7071 6.05603C15.8946 5.90869 16 5.70886 16 5.50049C16 5.29213 15.8946 5.09229 15.7071 4.94496C15.5196 4.79762 15.2652 4.71485 15 4.71485Z" fill="#111827"/>
</svg>
