<svg width="34" height="34" viewBox="0 0 34 34" fill="none" xmlns="http://www.w3.org/2000/svg">
<path d="M28.322 15.4877C27.7719 15.4877 27.3259 15.0417 27.3259 14.4916V5.19476C27.3259 4.64465 27.7719 4.19867 28.322 4.19867C28.8721 4.19867 29.3181 4.64465 29.3181 5.19476V14.4916C29.3181 15.0417 28.8721 15.4877 28.322 15.4877Z" fill="#00347B"/>
<path d="M5.67798 15.4877C5.12787 15.4877 4.68188 15.0417 4.68188 14.4916V5.19476C4.68188 4.64465 5.12787 4.19867 5.67798 4.19867C6.22809 4.19867 6.67407 4.64465 6.67407 5.19476V14.4916C6.67407 15.0417 6.22809 15.4877 5.67798 15.4877ZM27.8233 29.999H23.6402C23.0901 29.999 22.6441 29.553 22.6441 29.0029C22.6441 28.4528 23.0901 28.0068 23.6402 28.0068H27.8233C30.0916 28.0068 32.0079 26.1365 32.0079 23.9227V16.751C32.0079 16.2009 32.4538 15.7549 33.004 15.7549C33.5541 15.7549 34 16.2009 34 16.751V23.9227C34 27.2164 31.1715 29.999 27.8233 29.999Z" fill="#00429D"/>
<path d="M6.57422 10.9551H2.98828C1.34054 10.9551 0 12.2957 0 13.9434V17.9942C0 19.6419 1.34054 20.9825 2.98828 20.9825H6.57422C7.12433 20.9825 7.57031 20.5365 7.57031 19.9864V11.9512C7.57031 11.4011 7.12433 10.9551 6.57422 10.9551Z" fill="#0062ED"/>
<path d="M31.0117 10.9551H27.4258C26.8757 10.9551 26.4297 11.4011 26.4297 11.9512V19.9864C26.4297 20.5365 26.8757 20.9825 27.4258 20.9825H31.0117C32.6595 20.9825 34 19.6419 34 17.9942V13.9434C34 12.2957 32.6595 10.9551 31.0117 10.9551Z" fill="#3A33F8"/>
<path d="M26.192 6.30527C23.7432 3.89864 20.4788 2.57324 17 2.57324C13.5187 2.57324 10.2531 3.89878 7.80519 6.30574C5.34132 8.7283 3.98438 11.978 3.98438 15.4563V17.3816C3.98438 21.0068 6.93368 23.9561 10.5588 23.9561H23.4412C27.0664 23.9561 30.0156 21.0068 30.0156 17.3816V15.4563C30.0156 11.9784 28.6577 8.7285 26.192 6.30527Z" fill="#F0F5FA"/>
<path d="M26.192 6.30527C23.7432 3.89864 20.4788 2.57324 17 2.57324V23.9561H23.4412C27.0664 23.9561 30.0156 21.0068 30.0156 17.3816V15.4563C30.0156 11.9784 28.6577 8.7285 26.192 6.30527Z" fill="url(#paint0_linear_41_1924)"/>
<path d="M21.084 9.08105H12.916C9.63887 9.08105 6.97266 11.7472 6.97266 15.0244C6.97266 18.3016 9.6388 20.9678 12.916 20.9678H21.084C24.3611 20.9678 27.0273 18.3016 27.0273 15.0244C27.0273 11.7472 24.3611 9.08105 21.084 9.08105Z" fill="#D7E3F0"/>
<path d="M21.084 9.08105H17V20.9678H21.084C24.3611 20.9678 27.0273 18.3016 27.0273 15.0244C27.0273 11.7472 24.3611 9.08105 21.084 9.08105Z" fill="#A0B6DB"/>
<path fill-rule="evenodd" clip-rule="evenodd" d="M21.084 11.0732H12.916C10.7429 11.0732 8.96484 12.8513 8.96484 15.0244C8.96484 17.1976 10.7429 18.9756 12.916 18.9756H21.084C23.2571 18.9756 25.0352 17.1976 25.0352 15.0244C25.0352 12.8512 23.2571 11.0732 21.084 11.0732Z" fill="#00429D"/>
<path fill-rule="evenodd" clip-rule="evenodd" d="M21.084 11.0732H17V18.9756H21.084C23.2571 18.9756 25.0352 17.1976 25.0352 15.0244C25.0352 12.8512 23.2571 11.0732 21.084 11.0732Z" fill="#00347B"/>
<path d="M13.9961 16.7227C13.446 16.7227 13 16.2767 13 15.7266V14.9961C13 14.446 13.446 14 13.9961 14C14.5462 14 14.9922 14.446 14.9922 14.9961V15.7266C14.9922 16.2767 14.5463 16.7227 13.9961 16.7227Z" fill="#4793FF"/>
<path d="M20.8623 16.3857C20.3122 16.3857 19.8662 15.9397 19.8662 15.3896V14.6591C19.8662 14.109 20.3122 13.663 20.8623 13.663C21.4124 13.663 21.8584 14.109 21.8584 14.6591V15.3896C21.8584 15.9397 21.4124 16.3857 20.8623 16.3857Z" fill="#525CDD"/>
<path d="M22.1797 26.4463H19.9883C18.6151 26.4463 17.498 27.5634 17.498 28.9365C17.498 30.3097 18.6151 31.4268 19.9883 31.4268H22.1797C23.5528 31.4268 24.6699 30.3096 24.6699 28.9365C24.6699 27.5634 23.5528 26.4463 22.1797 26.4463Z" fill="#00347B"/>
<defs>
<linearGradient id="paint0_linear_41_1924" x1="25.5" y1="13.0333" x2="10.2" y2="13.6" gradientUnits="userSpaceOnUse">
<stop stop-color="#E2EBF4"/>
<stop offset="1" stop-color="#E2EBF4" stop-opacity="0"/>
</linearGradient>
</defs>
</svg>
