<svg width="24" height="24" viewBox="0 0 24 24" fill="none" xmlns="http://www.w3.org/2000/svg">
<path d="M19.9919 10.9325C19.6036 10.9325 19.2888 10.6177 19.2888 10.2294V3.66687C19.2888 3.27856 19.6036 2.96375 19.9919 2.96375C20.3803 2.96375 20.6951 3.27856 20.6951 3.66687V10.2294C20.6951 10.6177 20.3803 10.9325 19.9919 10.9325Z" fill="#00347B"/>
<path d="M4.00806 10.9325C3.61974 10.9325 3.30493 10.6177 3.30493 10.2294V3.66687C3.30493 3.27856 3.61974 2.96375 4.00806 2.96375C4.39637 2.96375 4.71118 3.27856 4.71118 3.66687V10.2294C4.71118 10.6177 4.39637 10.9325 4.00806 10.9325ZM19.6401 21.1758H16.6873C16.299 21.1758 15.9842 20.8609 15.9842 20.4726C15.9842 20.0843 16.299 19.7695 16.6873 19.7695H19.6401C21.2412 19.7695 22.5939 18.4493 22.5939 16.8866V11.8242C22.5939 11.4359 22.9087 11.1211 23.297 11.1211C23.6853 11.1211 24.0001 11.4359 24.0001 11.8242V16.8866C24.0001 19.2116 22.0035 21.1758 19.6401 21.1758Z" fill="#00429D"/>
<path d="M4.64062 7.73303H2.10938C0.946266 7.73303 0 8.6793 0 9.84241V12.7018C0 13.8649 0.946266 14.8112 2.10938 14.8112H4.64062C5.02894 14.8112 5.34375 14.4963 5.34375 14.108V8.43616C5.34375 8.04784 5.02894 7.73303 4.64062 7.73303Z" fill="#0062ED"/>
<path d="M21.8906 7.73303H19.3594C18.9711 7.73303 18.6562 8.04784 18.6562 8.43616V14.108C18.6562 14.4963 18.9711 14.8112 19.3594 14.8112H21.8906C23.0537 14.8112 24 13.8649 24 12.7018V9.84241C24 8.6793 23.0537 7.73303 21.8906 7.73303Z" fill="#3A33F8"/>
<path d="M18.4885 4.45078C16.7599 2.75198 14.4556 1.81641 12 1.81641C9.54258 1.81641 7.2375 2.75208 5.50955 4.45111C3.77034 6.16116 2.8125 8.45508 2.8125 10.9103V12.2694C2.8125 14.8283 4.89436 16.9102 7.45327 16.9102H16.5467C19.1057 16.9102 21.1875 14.8283 21.1875 12.2694V10.9103C21.1875 8.45531 20.229 6.1613 18.4885 4.45078Z" fill="#F0F5FA"/>
<path d="M18.4885 4.45078C16.7599 2.75198 14.4556 1.81641 12 1.81641V16.9102H16.5467C19.1057 16.9102 21.1875 14.8283 21.1875 12.2694V10.9103C21.1875 8.45531 20.229 6.1613 18.4885 4.45078Z" fill="url(#paint0_linear_1_1815)"/>
<path d="M14.8828 6.41016H9.11719C6.80391 6.41016 4.92188 8.29214 4.92188 10.6055C4.92188 12.9187 6.80386 14.8008 9.11719 14.8008H14.8828C17.1961 14.8008 19.0781 12.9188 19.0781 10.6055C19.0781 8.29214 17.1961 6.41016 14.8828 6.41016Z" fill="#D7E3F0"/>
<path d="M14.8828 6.41016H12V14.8008H14.8828C17.1961 14.8008 19.0781 12.9188 19.0781 10.6055C19.0781 8.29214 17.1961 6.41016 14.8828 6.41016Z" fill="#A0B6DB"/>
<path fill-rule="evenodd" clip-rule="evenodd" d="M14.8828 7.81641H9.11719C7.5832 7.81641 6.32812 9.07148 6.32812 10.6055C6.32812 12.1395 7.5832 13.3945 9.11719 13.3945H14.8828C16.4168 13.3945 17.6719 12.1395 17.6719 10.6055C17.6719 9.07144 16.4168 7.81641 14.8828 7.81641Z" fill="#00429D"/>
<path fill-rule="evenodd" clip-rule="evenodd" d="M14.8828 7.81641H12V13.3945H14.8828C16.4168 13.3945 17.6719 12.1395 17.6719 10.6055C17.6719 9.07144 16.4168 7.81641 14.8828 7.81641Z" fill="#00347B"/>
<path d="M9.27368 11.5664C8.88537 11.5664 8.57056 11.2516 8.57056 10.8633V10.3477C8.57056 9.95934 8.88537 9.64453 9.27368 9.64453C9.66199 9.64453 9.97681 9.95934 9.97681 10.3477V10.8633C9.97681 11.2516 9.66204 11.5664 9.27368 11.5664Z" fill="#4793FF"/>
<path d="M14.7263 11.5664C14.338 11.5664 14.0232 11.2516 14.0232 10.8633V10.3477C14.0232 9.95934 14.338 9.64453 14.7263 9.64453C15.1146 9.64453 15.4294 9.95934 15.4294 10.3477V10.8633C15.4294 11.2516 15.1146 11.5664 14.7263 11.5664Z" fill="#525CDD"/>
<path d="M15.6562 18.668H14.1094C13.1401 18.668 12.3516 19.4565 12.3516 20.4258C12.3516 21.3951 13.1401 22.1836 14.1094 22.1836H15.6562C16.6255 22.1836 17.4141 21.395 17.4141 20.4258C17.4141 19.4565 16.6255 18.668 15.6562 18.668Z" fill="#00347B"/>
<defs>
<linearGradient id="paint0_linear_1_1815" x1="18" y1="9.2" x2="7.2" y2="9.6" gradientUnits="userSpaceOnUse">
<stop stop-color="#E2EBF4"/>
<stop offset="1" stop-color="#E2EBF4" stop-opacity="0"/>
</linearGradient>
</defs>
</svg>
