<svg width="90" height="100" viewBox="0 0 90 100" fill="none" xmlns="http://www.w3.org/2000/svg">
<g filter="url(#filter0_d_775_23110)">
<path d="M46.3114 17.6812L44.462 5H17.3298C13.2443 5 10 8.44437 10 12.6714V65.7612C10 69.9882 13.2441 73.3627 17.3298 73.3627H43.0671L61.6094 44.3125V23.5957L46.3114 17.6812Z" fill="#F7F7F7"/>
<path d="M44.4622 5.01953L61.559 23.5978H50.1781C47.0175 23.5978 44.4622 20.9537 44.4622 17.6832V5.01953Z" fill="#4B44F6"/>
<path d="M42.3526 43.0234H20.4313C19.5069 43.0234 18.75 43.8065 18.75 44.7632C18.75 45.7202 19.5069 46.5024 20.4313 46.5024H42.3357C43.2601 46.5024 44.017 45.7202 44.017 44.7632C44.017 43.8065 43.2775 43.0234 42.3526 43.0234ZM20.4313 37.8052H37.4608C38.385 37.8052 39.142 37.0224 39.142 36.0654C39.142 35.1088 38.385 34.3262 37.4606 34.3262H20.4313C19.5069 34.3262 18.75 35.1088 18.75 36.0654C18.75 37.0224 19.5069 37.8052 20.4313 37.8052ZM36.8047 51.8949H20.4313C19.5069 51.8949 18.75 52.6782 18.75 53.6342C18.75 54.5913 19.5069 55.3739 20.4313 55.3739H36.8048C37.7297 55.3739 38.486 54.5913 38.486 53.6342C38.486 52.6782 37.7297 51.8949 36.8047 51.8949Z" fill="#B6B6B6" fill-opacity="0.34"/>
<path d="M61.5588 40.8516C71.9816 42.3642 80 51.6186 80 62.8208C80 75.067 70.4014 85 58.5666 85C50.4304 85 43.3361 80.3032 39.7215 73.38C38.0741 70.2315 37.1327 66.6309 37.1327 62.8037C37.1327 50.5575 46.7317 40.625 58.5666 40.625C59.5755 40.6425 60.5669 40.7125 61.5588 40.8516Z" fill="#F7F7F7"/>
<path d="M67.1734 62.4531L60.2642 70.1587V51.1636C60.2642 50.2071 59.5077 49.4238 58.5829 49.4238C57.6585 49.4238 56.902 50.2071 56.902 51.1636V70.1587L49.9423 62.4531C49.3032 61.7573 48.2274 61.7046 47.555 62.3657C46.8825 63.027 46.8326 64.1231 47.4704 64.8188L57.3055 75.7598C57.6244 76.108 58.0618 76.3165 58.5324 76.3165C59.0028 76.3165 59.4398 76.108 59.7597 75.7598L69.5937 64.8188C70.2328 64.1231 70.1987 63.0098 69.5263 62.3657C68.8548 61.7046 67.8124 61.7572 67.1734 62.4531Z" fill="#B6B6B6"/>
</g>
<defs>
<filter id="filter0_d_775_23110" x="0" y="0" width="90" height="100" filterUnits="userSpaceOnUse" color-interpolation-filters="sRGB">
<feFlood flood-opacity="0" result="BackgroundImageFix"/>
<feColorMatrix in="SourceAlpha" type="matrix" values="0 0 0 0 0 0 0 0 0 0 0 0 0 0 0 0 0 0 127 0" result="hardAlpha"/>
<feOffset dy="5"/>
<feGaussianBlur stdDeviation="5"/>
<feComposite in2="hardAlpha" operator="out"/>
<feColorMatrix type="matrix" values="0 0 0 0 0.294118 0 0 0 0 0.266667 0 0 0 0 0.964706 0 0 0 0.1 0"/>
<feBlend mode="normal" in2="BackgroundImageFix" result="effect1_dropShadow_775_23110"/>
<feBlend mode="normal" in="SourceGraphic" in2="effect1_dropShadow_775_23110" result="shape"/>
</filter>
</defs>
</svg>
