<svg width="40" height="40" viewBox="0 0 40 40" fill="none" xmlns="http://www.w3.org/2000/svg">
<circle cx="20" cy="20" r="20" fill="#FFFADA"/>
<path d="M20 30C15.1897 30 10 26.8694 10 20C10 13.1306 15.1897 10 20 10C22.6724 10 25.1379 10.9123 26.9655 12.576C28.9483 14.4007 30 16.9767 30 20C30 23.0233 28.9483 25.5814 26.9655 27.4061C25.1379 29.0698 22.6552 30 20 30Z" fill="url(#paint0_radial_115_1230)"/>
<path d="M28.2569 14.0554C29.1759 15.5939 29.6552 17.4257 29.6552 19.4633C29.6552 22.4865 28.6034 25.0447 26.6207 26.8694C24.7931 28.5331 22.3103 29.4633 19.6552 29.4633C16.5414 29.4633 13.2759 28.1484 11.3483 25.3595C13.2034 28.5187 16.6931 30 20 30C22.6552 30 25.1379 29.0697 26.9655 27.406C28.9483 25.5814 30 23.0232 30 20C30 17.7209 29.4017 15.6958 28.2569 14.0554Z" fill="#EB8F00"/>
<path d="M23.507 27.1986C23.4484 27.1753 23.3949 27.1378 23.3535 27.0877C21.6759 25.2791 18.9018 25.2236 17.1587 26.9642C17.119 27.0054 17.0777 27.0465 17.0397 27.0877C16.9984 27.1378 16.9449 27.1753 16.8863 27.1986C16.757 27.2487 16.6104 27.22 16.507 27.1252C16.4053 27.0322 16.3708 26.8837 16.4225 26.7531C16.9363 25.3846 18.4639 24.3113 20.1966 24.3113C21.9294 24.3113 23.457 25.3846 23.9708 26.7514C24.0225 26.8819 23.988 27.0304 23.8863 27.1234C23.7828 27.2183 23.6363 27.2469 23.507 27.1986Z" fill="#422B0D"/>
<path d="M19.0586 21.059C18.6724 20.5545 17.081 19.5849 16.5069 19.3023C16.2931 19.2003 16.0707 19.118 15.8431 19.0572C15.8017 19.0447 15.7569 19.0393 15.7138 19.0393C15.4844 19.0447 15.2879 19.2146 15.2413 19.449C15.1879 19.6923 15.3086 19.9427 15.5293 20.0429C15.8 20.1806 16.2724 20.4418 16.762 20.7298C16.3534 20.9821 16.1034 21.44 16.1034 21.9338V22.1949C16.1034 22.9355 16.6827 23.5366 17.3965 23.5366C18.1103 23.5366 18.6896 22.9355 18.6896 22.1949V21.9338C18.6896 21.923 18.6896 21.9141 18.6896 21.9034C18.8741 21.8908 19.0396 21.7763 19.1207 21.6046C19.2051 21.4257 19.181 21.2128 19.0586 21.059Z" fill="#422B0D"/>
<path d="M25.1588 19.4486C25.1105 19.2124 24.9105 19.0443 24.6777 19.0425C24.6346 19.0425 24.5898 19.0478 24.5484 19.0604C24.3208 19.1194 24.0984 19.2017 23.8846 19.3019C23.3105 19.5809 21.7191 20.5541 21.3329 21.055C21.2105 21.2106 21.1898 21.4253 21.276 21.6042C21.3588 21.7777 21.5225 21.8904 21.7088 21.9029V21.9334V22.1945C21.7088 22.9351 22.2881 23.5362 23.0019 23.5362C23.7157 23.5362 24.295 22.9351 24.295 22.1945V21.9334C24.295 21.4414 24.045 20.9852 23.6381 20.733C24.1277 20.445 24.6001 20.1838 24.8708 20.0461C25.0932 19.9459 25.2157 19.6936 25.1588 19.4486Z" fill="#422B0D"/>
<path d="M17.3311 20.9929C17.0862 20.8712 16.7914 20.9786 16.6724 21.2326C16.5811 21.4312 16.6224 21.6691 16.7759 21.8229C17.0207 21.9446 17.3155 21.8372 17.4345 21.5832C17.5259 21.3847 17.4845 21.1467 17.3311 20.9929Z" fill="#896024"/>
<path d="M22.9363 20.9929C22.6915 20.8712 22.3966 20.9786 22.2777 21.2326C22.1863 21.4312 22.2277 21.6691 22.3811 21.8229C22.6259 21.9446 22.9208 21.8372 23.0397 21.5832C23.1311 21.3847 23.0897 21.1467 22.9363 20.9929Z" fill="#896024"/>
<defs>
<radialGradient id="paint0_radial_115_1230" cx="0" cy="0" r="1" gradientUnits="userSpaceOnUse" gradientTransform="translate(20 20) scale(9.82064 10.1896)">
<stop offset="0.5" stop-color="#FDE030"/>
<stop offset="0.92" stop-color="#F7C02B"/>
<stop offset="1" stop-color="#F4A223"/>
</radialGradient>
</defs>
</svg>
