<svg width="40" height="40" viewBox="0 0 40 40" fill="none" xmlns="http://www.w3.org/2000/svg">
<circle cx="20" cy="20" r="20" fill="#FFFADA"/>
<path d="M20 30C15.1897 30 10 26.8694 10 20C10 13.1306 15.1897 10 20 10C22.6724 10 25.1379 10.9123 26.9655 12.576C28.9483 14.4007 30 16.9767 30 20C30 23.0233 28.9483 25.5814 26.9655 27.4061C25.1379 29.0698 22.6552 30 20 30Z" fill="url(#paint0_radial_115_1209)"/>
<path d="M28.2568 14.0554C29.1757 15.5939 29.655 17.4257 29.655 19.4633C29.655 22.4865 28.6033 25.0447 26.6206 26.8694C24.793 28.5331 22.3102 29.4633 19.655 29.4633C16.5412 29.4633 13.2688 28.1484 11.3481 25.3595C13.2033 28.5187 16.6912 30 19.9999 30C22.655 30 25.1378 29.0697 26.9654 27.406C28.9481 25.5814 29.9999 23.0232 29.9999 20C29.9999 17.7209 29.4016 15.6958 28.2568 14.0554Z" fill="#EB8F00"/>
<path opacity="0.8" d="M13.7328 24.7281C15.3992 24.7281 16.7501 23.3265 16.7501 21.5975C16.7501 19.8685 15.3992 18.4669 13.7328 18.4669C12.0664 18.4669 10.7156 19.8685 10.7156 21.5975C10.7156 23.3265 12.0664 24.7281 13.7328 24.7281Z" fill="url(#paint1_radial_115_1209)"/>
<path opacity="0.8" d="M26.4053 24.7281C28.0717 24.7281 29.4225 23.3265 29.4225 21.5975C29.4225 19.8685 28.0717 18.4669 26.4053 18.4669C24.7389 18.4669 23.3881 19.8685 23.3881 21.5975C23.3881 23.3265 24.7389 24.7281 26.4053 24.7281Z" fill="url(#paint2_radial_115_1209)"/>
<path d="M17.4758 18.9249C17.4758 18.9249 17.4672 18.9124 17.4482 18.8891C17.431 18.8658 17.4069 18.8336 17.3758 18.7925C17.35 18.7639 17.3189 18.7299 17.2827 18.6905C17.2465 18.6476 17.2017 18.6029 17.1569 18.5564C17.1103 18.5116 17.062 18.4651 17.012 18.4276C16.9638 18.3864 16.9103 18.356 16.8672 18.331C16.8224 18.3023 16.781 18.2952 16.7551 18.2862C16.7413 18.2809 16.7293 18.2809 16.7189 18.2791C16.7138 18.2809 16.7086 18.2773 16.7034 18.2791L16.6965 18.2809H16.6931H16.6913C16.712 18.2809 16.6448 18.2827 16.7379 18.2791L16.6431 18.2827C16.6189 18.2827 16.6344 18.2845 16.6362 18.2845C16.6413 18.2845 16.6448 18.2844 16.6482 18.2827C16.662 18.2773 16.6482 18.2827 16.6448 18.2827C16.6396 18.2827 16.6327 18.2845 16.6258 18.288C16.5982 18.297 16.5569 18.3041 16.5138 18.3328C16.4707 18.3578 16.4172 18.3882 16.3689 18.4294C16.3207 18.4687 16.2707 18.5134 16.2241 18.5582C16.1344 18.6494 16.0551 18.7406 16 18.8068C15.9431 18.8748 15.912 18.9141 15.912 18.9141L15.8724 18.9624C15.6362 19.2487 15.2017 19.297 14.9034 19.0716C14.7 18.9177 14.612 18.678 14.65 18.449C14.65 18.449 14.662 18.3757 14.6965 18.2487C14.7327 18.1217 14.7931 17.941 14.912 17.7281C15.031 17.517 15.2034 17.2684 15.4948 17.0412C15.6379 16.9302 15.812 16.8193 16.0189 16.7442C16.0689 16.7245 16.1224 16.7066 16.1776 16.6923C16.2344 16.678 16.2793 16.6619 16.3569 16.6512L16.4638 16.6351C16.4965 16.6315 16.5448 16.6261 16.5517 16.6261L16.6465 16.619L16.7 16.6172H16.7051H16.7155L16.7379 16.619H16.7793L16.8672 16.6243C16.9258 16.6297 16.9827 16.6404 17.0396 16.6494C17.1517 16.6709 17.2638 16.7013 17.3655 16.7406C17.5724 16.8158 17.7465 16.9249 17.8896 17.0376C18.181 17.2648 18.3534 17.5134 18.4724 17.7245C18.5327 17.8301 18.5776 17.9302 18.6103 18.0179C18.6465 18.102 18.6724 18.1914 18.6931 18.2576C18.712 18.322 18.712 18.356 18.7207 18.3864C18.7258 18.415 18.7276 18.4311 18.7276 18.4311C18.7913 18.7925 18.5344 19.1342 18.1569 19.1932C17.8862 19.2379 17.6258 19.1252 17.4758 18.9249Z" fill="#422B0D"/>
<path d="M24.2861 18.9249C24.2861 18.9249 24.2775 18.9124 24.2586 18.8891C24.2413 18.8658 24.2172 18.8336 24.1861 18.7925C24.1603 18.7639 24.1292 18.7299 24.093 18.6905C24.0568 18.6476 24.012 18.6029 23.9672 18.5564C23.9206 18.5116 23.8724 18.4651 23.8224 18.4276C23.7741 18.3864 23.7206 18.356 23.6775 18.331C23.6327 18.3023 23.5913 18.2952 23.5655 18.2862C23.5517 18.2809 23.5396 18.2809 23.5293 18.2791C23.5241 18.2809 23.5189 18.2773 23.5137 18.2791L23.5068 18.2809H23.5034H23.5017H23.4999C23.5206 18.2809 23.4534 18.2827 23.5465 18.2791L23.4517 18.2827C23.4275 18.2827 23.443 18.2845 23.4448 18.2845C23.4499 18.2845 23.4534 18.2844 23.4568 18.2827C23.4706 18.2773 23.4568 18.2827 23.4534 18.2827C23.4482 18.2827 23.4413 18.2845 23.4344 18.288C23.4068 18.297 23.3655 18.3041 23.3224 18.3328C23.2793 18.3578 23.2258 18.3882 23.1775 18.4294C23.1293 18.4687 23.0793 18.5134 23.0327 18.5582C22.943 18.6494 22.8637 18.7406 22.8086 18.8068C22.7517 18.8748 22.7206 18.9141 22.7206 18.9141L22.681 18.9624C22.4448 19.2487 22.0103 19.297 21.712 19.0716C21.5086 18.9177 21.4206 18.678 21.4586 18.449C21.4586 18.449 21.4706 18.3757 21.5051 18.2487C21.5413 18.1217 21.6017 17.941 21.7206 17.7281C21.8396 17.517 22.012 17.2684 22.3034 17.0412C22.4465 16.9302 22.6206 16.8193 22.8275 16.7442C22.8775 16.7245 22.931 16.7066 22.9861 16.6923C23.043 16.678 23.0879 16.6619 23.1655 16.6512L23.2724 16.6351C23.3051 16.6315 23.3534 16.6261 23.3603 16.6261L23.4551 16.619L23.5086 16.6172H23.5137H23.5241L23.5465 16.619H23.5879L23.6758 16.6243C23.7344 16.6297 23.7913 16.6404 23.8482 16.6494C23.9603 16.6709 24.0724 16.7013 24.1741 16.7406C24.381 16.8158 24.5551 16.9249 24.6982 17.0376C24.9896 17.2648 25.162 17.5134 25.281 17.7245C25.3413 17.8301 25.3861 17.9302 25.4189 18.0179C25.4551 18.102 25.481 18.1914 25.5017 18.2576C25.5206 18.322 25.5206 18.356 25.5293 18.3864C25.5344 18.415 25.5361 18.4311 25.5361 18.4311C25.5999 18.7925 25.343 19.1342 24.9655 19.1932C24.6948 19.2379 24.4344 19.1252 24.2861 18.9249Z" fill="#422B0D"/>
<path d="M20.0723 25.5618C17.905 25.5618 16.1913 24.4974 15.2464 23.3578C15.1516 23.2433 15.1292 23.0895 15.1895 22.9553C15.2499 22.8176 15.3809 22.7281 15.5223 22.7281C15.5861 22.7281 15.6516 22.746 15.7085 22.78C16.6826 23.3632 18.3188 24.0841 20.0671 24.0841H20.0947C21.8447 24.0841 23.4792 23.3614 24.4533 22.78C24.5119 22.746 24.5757 22.7264 24.6395 22.7281C24.7809 22.7281 24.9119 22.8176 24.9723 22.9553C25.0309 23.0895 25.0102 23.2451 24.9154 23.3578C23.9706 24.4956 22.255 25.5618 20.0895 25.5618" fill="#422B0D"/>
<defs>
<radialGradient id="paint0_radial_115_1209" cx="0" cy="0" r="1" gradientUnits="userSpaceOnUse" gradientTransform="translate(20 20) scale(9.82064 10.1896)">
<stop offset="0.5" stop-color="#FDE030"/>
<stop offset="0.9188" stop-color="#F7C02B"/>
<stop offset="1" stop-color="#F4A223"/>
</radialGradient>
<radialGradient id="paint1_radial_115_1209" cx="0" cy="0" r="1" gradientUnits="userSpaceOnUse" gradientTransform="translate(13.7329 21.5973) scale(3.28242 3.23528)">
<stop stop-color="#ED7770"/>
<stop offset="0.9" stop-color="#ED7770" stop-opacity="0"/>
</radialGradient>
<radialGradient id="paint2_radial_115_1209" cx="0" cy="0" r="1" gradientUnits="userSpaceOnUse" gradientTransform="translate(26.4057 21.5973) scale(3.28242 3.23528)">
<stop stop-color="#ED7770"/>
<stop offset="0.9" stop-color="#ED7770" stop-opacity="0"/>
</radialGradient>
</defs>
</svg>
