<svg width="40" height="40" viewBox="0 0 40 40" fill="none" xmlns="http://www.w3.org/2000/svg">
<circle cx="20" cy="20" r="20" fill="#FFFADA"/>
<path d="M20 30C15.1897 30 10 26.8694 10 20C10 13.1306 15.1897 10 20 10C22.6724 10 25.1379 10.9123 26.9655 12.576C28.9483 14.4007 30 16.9767 30 20C30 23.0233 28.9483 25.5814 26.9655 27.4061C25.1379 29.0698 22.6552 30 20 30Z" fill="url(#paint0_radial_115_1199)"/>
<path d="M28.2568 14.0554C29.1757 15.5939 29.655 17.4257 29.655 19.4633C29.655 22.4865 28.6033 25.0447 26.6206 26.8694C24.793 28.5331 22.3102 29.4633 19.655 29.4633C16.5412 29.4633 13.2757 28.1484 11.3481 25.3595C13.2033 28.5187 16.693 30 19.9999 30C22.655 30 25.1378 29.0697 26.9654 27.406C28.9481 25.5814 29.9999 23.0232 29.9999 20C29.9999 17.7209 29.4016 15.6958 28.2568 14.0554Z" fill="#EB8F00"/>
<path d="M16.6208 16.0715C15.8984 16.0715 15.2415 16.7048 15.2415 17.7567C15.2415 18.8086 15.8984 19.44 16.6208 19.44C17.3449 19.44 18.0001 18.8068 18.0001 17.7567C18.0001 16.7066 17.3518 16.0715 16.6208 16.0715Z" fill="#422B0D"/>
<path d="M16.5603 16.7746C16.3155 16.653 16.0207 16.7603 15.9017 17.0143C15.8103 17.2129 15.8517 17.4508 16.0051 17.6047C16.25 17.7263 16.5448 17.619 16.6638 17.365C16.7551 17.1664 16.7138 16.9285 16.5603 16.7746Z" fill="#896024"/>
<path d="M23.2414 16.0715C22.519 16.0715 21.8621 16.7048 21.8621 17.7567C21.8621 18.8086 22.519 19.44 23.2414 19.44C23.9638 19.44 24.6207 18.8068 24.6207 17.7567C24.6207 16.7066 23.9638 16.0715 23.2414 16.0715Z" fill="#422B0D"/>
<path d="M23.1722 16.7746C22.9274 16.653 22.6326 16.7603 22.5136 17.0143C22.4222 17.2129 22.4636 17.4508 22.6171 17.6047C22.8619 17.7263 23.1567 17.619 23.2757 17.365C23.3671 17.1664 23.3257 16.9285 23.1722 16.7746Z" fill="#896024"/>
<path d="M20.1001 22.7352C21.6639 22.7209 23.1605 23.4043 24.207 24.61C24.2863 24.7048 24.3053 24.839 24.2553 24.9535C24.2053 25.0697 24.095 25.1449 23.9725 25.1467C23.9174 25.1467 23.8622 25.1306 23.8139 25.1019C22.9829 24.6064 21.5932 23.991 20.1036 23.991H20.0794C18.5915 23.991 17.2001 24.6064 16.3708 25.1019C16.3225 25.1306 16.2674 25.1467 16.2122 25.1467C16.0898 25.1449 15.9812 25.0697 15.9312 24.9535C15.8794 24.839 15.8984 24.7048 15.9794 24.61C17.026 23.4043 18.5208 22.7209 20.0846 22.7352" fill="#422B0D"/>
<defs>
<radialGradient id="paint0_radial_115_1199" cx="0" cy="0" r="1" gradientUnits="userSpaceOnUse" gradientTransform="translate(20 20) scale(9.82064 10.1896)">
<stop offset="0.5" stop-color="#FDE030"/>
<stop offset="0.92" stop-color="#F7C02B"/>
<stop offset="1" stop-color="#F4A223"/>
</radialGradient>
</defs>
</svg>
