<svg width="40" height="40" viewBox="0 0 40 40" fill="none" xmlns="http://www.w3.org/2000/svg">
<circle cx="20" cy="20" r="20" fill="#FFFADA"/>
<path d="M20 30C15.1897 30 10 26.8694 10 20C10 13.1306 15.1897 10 20 10C22.6724 10 25.1379 10.9123 26.9655 12.576C28.9483 14.4007 30 16.9767 30 20C30 23.0233 28.9483 25.5814 26.9655 27.4061C25.1379 29.0698 22.6552 30 20 30Z" fill="url(#paint0_radial_115_1183)"/>
<path d="M28.2568 14.0554C29.1757 15.5939 29.655 17.4257 29.655 19.4633C29.655 22.4865 28.6033 25.0447 26.6206 26.8694C24.793 28.5331 22.3102 29.4633 19.655 29.4633C16.5412 29.4633 13.2757 28.1484 11.3481 25.3595C13.2033 28.5187 16.693 30 19.9999 30C22.655 30 25.1378 29.0697 26.9654 27.406C28.9481 25.5814 29.9999 23.0232 29.9999 20C29.9999 17.7209 29.4016 15.6958 28.2568 14.0554Z" fill="#EB8F00"/>
<path d="M20.138 23.6493C19.5208 23.6493 18.9087 23.542 18.3277 23.3273C17.6122 23.0715 16.8346 23.4668 16.588 24.2074C16.4484 24.6261 16.5053 25.0876 16.7415 25.4561C17.4829 26.6368 18.6553 27.2808 20.138 27.2808C21.6208 27.2808 22.7932 26.6368 23.5346 25.4561C23.9535 24.8032 23.7811 23.9212 23.1518 23.4865C22.7967 23.2414 22.3518 23.1824 21.9484 23.3273C21.3673 23.542 20.7553 23.6493 20.138 23.6493Z" fill="#422B0D"/>
<path opacity="0.8" d="M14.9311 24.7048C16.5974 24.7048 17.9483 23.3833 17.9483 21.7531C17.9483 20.1229 16.5974 18.8014 14.9311 18.8014C13.2647 18.8014 11.9138 20.1229 11.9138 21.7531C11.9138 23.3833 13.2647 24.7048 14.9311 24.7048Z" fill="url(#paint1_radial_115_1183)"/>
<path opacity="0.8" d="M25.3449 24.7048C27.0113 24.7048 28.3621 23.3833 28.3621 21.7531C28.3621 20.1229 27.0113 18.8014 25.3449 18.8014C23.6785 18.8014 22.3276 20.1229 22.3276 21.7531C22.3276 23.3833 23.6785 24.7048 25.3449 24.7048Z" fill="url(#paint2_radial_115_1183)"/>
<path d="M27.5844 14.8962C26.1689 14.483 25.1293 15.6834 25.1293 15.6834C25.1293 15.6834 25.0086 14.322 23.7982 13.8944C22.3465 13.3775 20.8138 14.2003 20.7224 16.3345C20.6189 18.7656 23.7189 21.9571 23.7189 21.9571C23.7189 21.9571 27.5672 20.8837 28.8276 18.6082C29.8534 16.7567 28.6551 15.2075 27.5844 14.8962Z" fill="#F44336"/>
<path d="M27.5844 14.8963C27.4103 14.848 27.231 14.8265 27.0516 14.8301C27.5585 15.1825 27.9603 15.6745 28.2103 16.2505C28.4534 16.8569 28.5172 17.6405 28.0551 18.5761C27.0534 20.6101 23.9689 21.8694 23.7448 21.9571C24.0258 21.8748 27.6223 20.8015 28.8344 18.6136C29.8534 16.7567 28.6551 15.2076 27.5844 14.8963Z" fill="#C62828"/>
<path d="M25.1276 15.9033C25.1173 15.7173 25.0897 15.5312 25.0483 15.3488C24.9483 14.8228 24.6345 14.3666 24.1863 14.0965C23.8794 13.9105 23.5397 13.7924 23.188 13.7477C23.188 13.7477 23.7052 13.9105 24.0742 14.6529C24.2621 15.0429 24.3742 15.4686 24.4018 15.9033C24.4001 16.0625 24.4276 16.2182 24.4828 16.3666C24.5449 16.5151 24.6966 16.6028 24.8518 16.5777C25.088 16.5151 25.1397 16.2092 25.1276 15.9033Z" fill="#C62828"/>
<path d="M21.7757 15.05C22.0982 14.635 22.6275 14.2396 23.1344 14.6046C23.4033 14.7996 23.4068 15.3523 23.0775 15.601C22.5223 16.0232 22.4964 16.3005 22.4344 16.533C22.3585 16.8103 22.3102 17.1412 22.0671 17.2808C21.824 17.4203 21.6102 17.2808 21.4826 16.8818C21.2654 16.2593 21.3757 15.5652 21.7757 15.05Z" fill="#FF847A"/>
<path d="M16.0552 13.8587C14.6569 14.3292 14.4328 15.9267 14.4328 15.9267C14.4328 15.9267 13.6052 14.8534 12.3638 15.2004C10.8828 15.6047 10.0466 17.1718 11.1035 18.9983C12.3276 21.0913 16.6104 21.9589 16.6104 21.9589C16.6104 21.9589 19.2397 18.8534 19.0742 16.2344C18.938 14.102 17.1121 13.5027 16.0552 13.8587Z" fill="#F44336"/>
<path d="M16.055 13.8587C15.8843 13.916 15.7206 13.9983 15.5706 14.102C16.1809 14.1038 16.7775 14.2827 17.2947 14.619C17.8223 14.9768 18.293 15.5994 18.4102 16.6459C18.6637 18.916 16.7671 21.7371 16.6206 21.9428C16.8119 21.7138 19.2309 18.7514 19.0723 16.2326C18.9378 14.102 17.1119 13.5028 16.055 13.8587Z" fill="#C62828"/>
<path d="M14.5516 16.1145C14.4447 15.9624 14.324 15.8229 14.1895 15.6976C13.8275 15.3148 13.3257 15.1109 12.8102 15.1395C12.4568 15.161 12.1102 15.2558 11.793 15.4221C11.793 15.4221 12.3102 15.2594 13.0137 15.6672C13.3809 15.8873 13.6999 16.1824 13.955 16.5331C14.0378 16.6672 14.1447 16.7817 14.2706 16.8729C14.4016 16.9606 14.574 16.9445 14.6895 16.8354C14.843 16.6422 14.724 16.3595 14.5516 16.1145Z" fill="#C62828"/>
<path d="M11.3105 17.3345C11.3174 17.1842 11.3432 17.0357 11.3863 16.8926C11.457 16.5921 11.6622 16.3434 11.9363 16.2236C12.2001 16.1377 12.5656 16.1985 12.707 16.4722C12.8329 16.7155 12.7415 17.0089 12.6725 17.2772C12.6105 17.5849 12.576 17.8998 12.5691 18.2146C12.5708 18.4722 12.3725 18.6815 12.1243 18.6851C11.8898 18.6851 11.707 18.474 11.576 18.2719C11.3932 17.9964 11.3001 17.669 11.3105 17.3345Z" fill="#FF847A"/>
<defs>
<radialGradient id="paint0_radial_115_1183" cx="0" cy="0" r="1" gradientUnits="userSpaceOnUse" gradientTransform="translate(20 20) scale(9.82064 10.1896)">
<stop offset="0.5" stop-color="#FDE030"/>
<stop offset="0.92" stop-color="#F7C02B"/>
<stop offset="1" stop-color="#F4A223"/>
</radialGradient>
<radialGradient id="paint1_radial_115_1183" cx="0" cy="0" r="1" gradientUnits="userSpaceOnUse" gradientTransform="translate(14.9311 20.3954) scale(3.28825 3.06364)">
<stop stop-color="#ED7770"/>
<stop offset="0.9" stop-color="#ED7770" stop-opacity="0"/>
</radialGradient>
<radialGradient id="paint2_radial_115_1183" cx="0" cy="0" r="1" gradientUnits="userSpaceOnUse" gradientTransform="translate(30.2621 460.91) scale(3.35517 3.48122)">
<stop stop-color="#ED7770"/>
<stop offset="0.9" stop-color="#ED7770" stop-opacity="0"/>
</radialGradient>
</defs>
</svg>
