<svg width="40" height="40" viewBox="0 0 40 40" fill="none" xmlns="http://www.w3.org/2000/svg">
<circle cx="20" cy="20" r="20" fill="#FFFADA"/>
<path d="M20 30C15.1897 30 10 26.8694 10 20C10 13.1306 15.1897 10 20 10C22.6724 10 25.1379 10.9123 26.9655 12.576C28.9483 14.4007 30 16.9767 30 20C30 23.0233 28.9483 25.5814 26.9655 27.4061C25.1379 29.0698 22.6552 30 20 30Z" fill="url(#paint0_radial_115_1220)"/>
<path d="M28.2568 14.0554C29.1757 15.5939 29.655 17.4257 29.655 19.4633C29.655 22.4865 28.6033 25.0447 26.6206 26.8694C24.793 28.5331 22.3102 29.4633 19.655 29.4633C16.5412 29.4633 13.2757 28.1484 11.3481 25.3595C13.2033 28.5187 16.693 30 19.9999 30C22.655 30 25.1378 29.0697 26.9654 27.406C28.9481 25.5814 29.9999 23.0232 29.9999 20C29.9999 17.7209 29.4016 15.6958 28.2568 14.0554Z" fill="#EB8F00"/>
<path d="M24.3793 24.4902H15.7586C15.3776 24.4902 15.069 24.17 15.069 23.7746C15.069 23.3793 15.3776 23.0591 15.7586 23.0591H24.3793C24.7603 23.0591 25.069 23.3793 25.069 23.7746C25.069 24.17 24.7603 24.4902 24.3793 24.4902Z" fill="#422B0D"/>
<path d="M16.7361 16.9661C16.0137 16.9661 15.3568 17.5993 15.3568 18.6512C15.3568 19.7031 16.0137 20.3346 16.7361 20.3346C17.4585 20.3346 18.1154 19.7013 18.1154 18.6512C18.1154 17.6011 17.4585 16.9661 16.7361 16.9661Z" fill="#422B0D"/>
<path d="M16.669 17.669C16.4241 17.5474 16.1293 17.6547 16.0103 17.9087C15.919 18.1073 15.9603 18.3452 16.1138 18.4991C16.3586 18.6207 16.6534 18.5134 16.7724 18.2594C16.8638 18.0608 16.8224 17.8229 16.669 17.669Z" fill="#896024"/>
<path d="M23.3449 16.9661C22.6225 16.9661 21.9656 17.5993 21.9656 18.6512C21.9656 19.7031 22.6225 20.3346 23.3449 20.3346C24.0673 20.3346 24.7242 19.7013 24.7242 18.6512C24.7242 17.6011 24.0707 16.9661 23.3449 16.9661Z" fill="#422B0D"/>
<path d="M23.2809 17.669C23.0361 17.5474 22.7412 17.6547 22.6223 17.9087C22.5309 18.1073 22.5723 18.3452 22.7257 18.4991C22.9705 18.6207 23.2654 18.5134 23.3843 18.2594C23.4757 18.0608 23.4343 17.8229 23.2809 17.669Z" fill="#896024"/>
<defs>
<radialGradient id="paint0_radial_115_1220" cx="0" cy="0" r="1" gradientUnits="userSpaceOnUse" gradientTransform="translate(20 20) scale(9.82064 10.1896)">
<stop offset="0.5" stop-color="#FDE030"/>
<stop offset="0.92" stop-color="#F7C02B"/>
<stop offset="1" stop-color="#F4A223"/>
</radialGradient>
</defs>
</svg>
