<svg width="159" height="159" viewBox="0 0 159 159" fill="none" xmlns="http://www.w3.org/2000/svg">
<path d="M14.3096 139.607H149.985C156.807 124.351 148.435 108.835 138.11 106.177C128.758 103.77 115.574 111.334 111.984 125.623C110.277 123.985 105.642 120.002 98.7727 119.388C90.2721 118.63 81.7808 123.339 76.8034 131.412C75.4115 130.085 61.0884 116.895 41.1775 120.724C24.0643 124.016 15.6372 137.416 14.3096 139.607Z" fill="#C2D3F9"/>
<path d="M145.444 94.318C147.546 94.318 149.251 92.6138 149.251 90.5115C149.251 88.4093 147.546 86.7051 145.444 86.7051C143.342 86.7051 141.638 88.4093 141.638 90.5115C141.638 92.6138 143.342 94.318 145.444 94.318Z" fill="#FF6666" stroke="#1A1A1A" stroke-width="0.5" stroke-linecap="round" stroke-linejoin="round"/>
<path d="M132.246 21.6389C132.246 20.7032 132.062 19.7766 131.704 18.9122C131.346 18.0477 130.821 17.2622 130.159 16.6006C129.498 15.939 128.712 15.4141 127.848 15.056C126.983 14.698 126.057 14.5137 125.121 14.5137H39.8166C38.8809 14.5137 37.9544 14.698 37.0899 15.056C36.2254 15.4141 35.44 15.939 34.7783 16.6006C34.1167 17.2622 33.5918 18.0477 33.2338 18.9122C32.8757 19.7766 32.6914 20.7032 32.6914 21.6389V22.0347H132.246V21.6389Z" fill="#DFE8FC" stroke="#1A1A1A" stroke-width="0.5" stroke-linecap="round" stroke-linejoin="round"/>
<path d="M32.6914 22.0352V71.7136C32.6914 72.6493 32.8757 73.5758 33.2338 74.4403C33.5919 75.3047 34.1167 76.0902 34.7783 76.7518C35.44 77.4135 36.2254 77.9383 37.0899 78.2964C37.9544 78.6544 38.8809 78.8387 39.8166 78.8387H125.121C126.057 78.8387 126.983 78.6544 127.848 78.2964C128.712 77.9383 129.498 77.4135 130.159 76.7518C130.821 76.0902 131.346 75.3047 131.704 74.4403C132.062 73.5758 132.246 72.6493 132.246 71.7136V22.0352H32.6914Z" fill="#E1E5EA" stroke="#1A1A1A" stroke-width="0.5" stroke-linecap="round" stroke-linejoin="round"/>
<path d="M95.1688 45.291C95.1688 45.291 94.4779 45.5015 94.0967 45.3906L95.1688 45.291Z" fill="white"/>
<path d="M95.1688 45.291C95.1688 45.291 94.4779 45.5015 94.0967 45.3906" stroke="#1A1A1A" stroke-linecap="round" stroke-linejoin="round"/>
<path d="M40.6084 47.666C40.6084 47.666 40.6697 47.893 40.8035 48.3041" stroke="#1A1A1A" stroke-linecap="round" stroke-linejoin="round"/>
<path d="M41.249 49.5664C43.0924 54.4591 49.2575 67.3966 64.0625 71.6139C76.2985 75.0994 83.6628 73.9436 86.4423 73.2105" stroke="#1A1A1A" stroke-width="0.5" stroke-linecap="round" stroke-linejoin="round" stroke-dasharray="25.27 25.27"/>
<path d="M87.085 73.0256C87.5049 72.8932 87.7134 72.8018 87.7134 72.8018" stroke="#1A1A1A" stroke-linecap="round" stroke-linejoin="round"/>
<path d="M44.1709 22.0352V22.7026" stroke="#1A1A1A" stroke-linecap="round" stroke-linejoin="round"/>
<path d="M44.1709 24.0557V77.495" stroke="#1A1A1A" stroke-width="0.5" stroke-linecap="round" stroke-linejoin="round" stroke-dasharray="25.53 25.53"/>
<path d="M44.1709 78.1709V78.8383" stroke="#1A1A1A" stroke-width="0.5" stroke-linecap="round" stroke-linejoin="round"/>
<path d="M32.6914 28.1211H33.3589" stroke="#1A1A1A" stroke-linecap="round" stroke-linejoin="round"/>
<path d="M34.7041 28.1211H130.906" stroke="#1A1A1A" stroke-width="0.5" stroke-linecap="round" stroke-linejoin="round" stroke-dasharray="25.39 25.39"/>
<path d="M131.579 28.1211H132.247" stroke="#1A1A1A" stroke-linecap="round" stroke-linejoin="round"/>
<path d="M43.1259 75.1313L50.2906 69.6279L50.0257 63.4264L45.2643 67.0838C45.4133 67.5383 45.3983 68.0307 45.2219 68.4754C45.0454 68.92 44.7186 69.2887 44.2985 69.5173C43.8783 69.746 43.3913 69.8201 42.9221 69.7268C42.4529 69.6335 42.0313 69.3787 41.7306 69.0067C41.4298 68.6347 41.269 68.169 41.2761 67.6907C41.2831 67.2124 41.4577 66.7517 41.7693 66.3888C42.0808 66.0258 42.5098 65.7836 42.9815 65.7042C43.4533 65.6248 43.9379 65.7133 44.3511 65.9542L49.1412 62.2748L43.2176 60.4199L36.053 65.9234L35.4345 70.6398L35.1504 70.858L38.023 74.8079L38.4086 74.5117L43.1259 75.1313Z" fill="#4B44F6"/>
<path d="M27.9949 76.3759L25.1953 78.5264L28.1694 82.3983L30.9691 80.2478L27.9949 76.3759Z" fill="white"/>
<path d="M25.1955 78.5266L17.2041 84.665L20.1782 88.5369L28.1696 82.3985L25.1955 78.5266Z" fill="white"/>
<path d="M27.9949 76.3759L25.1953 78.5264L28.1694 82.3983L30.9691 80.2478L27.9949 76.3759Z" fill="#1A1A1A" stroke="#1A1A1A" stroke-linecap="round" stroke-linejoin="round"/>
<path d="M28.2393 76.1665L31.2134 80.0383L38.0222 74.8082L35.1496 70.8584L28.2393 76.1665Z" fill="#4B44F6" stroke="#4B44F6" stroke-width="0.5" stroke-linecap="round" stroke-linejoin="round"/>
<path d="M28.2401 76.1659L25.4404 78.3164L28.4146 82.1883L31.2142 80.0378L28.2401 76.1659Z" stroke="#1A1A1A" stroke-linecap="round" stroke-linejoin="round"/>
<path d="M25.1955 78.5266L17.2041 84.665L20.1782 88.5369L28.1696 82.3985L25.1955 78.5266Z" fill="#4B44F6" stroke="#4B44F6" stroke-width="0.5" stroke-linecap="round" stroke-linejoin="round"/>
<path d="M29.3678 36.2172V33.1492H26.2027C26.079 32.701 25.9004 32.2697 25.671 31.8652L27.9088 29.6274L25.739 27.4576L23.5013 29.6954C23.0967 29.466 22.6654 29.2874 22.2172 29.1637V26H19.1506V29.1637C18.7024 29.2874 18.2711 29.466 17.8665 29.6954L15.6288 27.4576L13.459 29.6274L15.6968 31.8652C15.4674 32.2697 15.2888 32.701 15.1651 33.1492H12V36.2172H15.1651C15.2888 36.6655 15.4674 37.0967 15.6968 37.5013L13.459 39.739L15.6288 41.9088L17.8665 39.671C18.2711 39.9004 18.7024 40.079 19.1506 40.2027V43.3664H22.2172V40.2027C22.6654 40.079 23.0967 39.9004 23.5013 39.671L25.739 41.9088L27.9088 39.739L25.671 37.5013C25.9004 37.0967 26.079 36.6655 26.2027 36.2172H29.3678ZM23.3402 36.2172C23.0709 36.6836 22.6836 37.0709 22.2172 37.3402C21.9854 37.4752 21.7365 37.5784 21.4773 37.647C20.957 37.7859 20.4094 37.7859 19.8892 37.647C19.6303 37.5784 19.3819 37.4752 19.1506 37.3402C18.4465 36.9324 17.932 36.2627 17.7194 35.4773C17.6511 35.2181 17.6166 34.9512 17.6167 34.6832C17.6164 34.4151 17.6514 34.1481 17.7208 33.8892C17.7894 33.6299 17.8926 33.381 18.0276 33.1492C18.2973 32.6831 18.6845 32.2959 19.1506 32.0262C19.3819 31.8913 19.6303 31.7881 19.8892 31.7194C20.4094 31.5806 20.957 31.5806 21.4773 31.7194C21.7365 31.7881 21.9854 31.8913 22.2172 32.0262C22.6833 32.2959 23.0705 32.6831 23.3402 33.1492C23.4752 33.381 23.5784 33.6299 23.647 33.8892C23.7164 34.1481 23.7514 34.4151 23.7511 34.6832C23.7512 34.9512 23.7167 35.2181 23.6484 35.4773C23.5787 35.7364 23.475 35.9852 23.3402 36.2172Z" fill="#49E5DB"/>
<path d="M44.3027 20.2206C45.3775 20.2206 46.2489 19.3492 46.2489 18.2743C46.2489 17.1995 45.3775 16.3281 44.3027 16.3281C43.2278 16.3281 42.3564 17.1995 42.3564 18.2743C42.3564 19.3492 43.2278 20.2206 44.3027 20.2206Z" fill="#F8DC29" stroke="#1A1A1A" stroke-width="0.5" stroke-linecap="round" stroke-linejoin="round"/>
<path d="M64.8484 17.1533H49.7187C49.4787 17.1533 49.2842 17.3478 49.2842 17.5878V19.2918C49.2842 19.5318 49.4787 19.7263 49.7187 19.7263H64.8484C65.0883 19.7263 65.2829 19.5318 65.2829 19.2918V17.5878C65.2829 17.3478 65.0883 17.1533 64.8484 17.1533Z" fill="#F8DC29" stroke="#1A1A1A" stroke-width="0.5" stroke-linecap="round" stroke-linejoin="round"/>
<path d="M48.3271 28.8555V40.3592C48.3271 40.9586 48.5653 41.5335 48.9891 41.9573C49.413 42.3812 49.9878 42.6193 50.5872 42.6193H106.037C106.637 42.6193 107.212 42.3812 107.636 41.9573C108.059 41.5335 108.297 40.9586 108.297 40.3592V28.8555H48.3271Z" fill="white" stroke="#1A1A1A" stroke-width="0.5" stroke-linecap="round" stroke-linejoin="round"/>
<path d="M108.297 27.8577C108.297 27.5609 108.239 27.267 108.125 26.9928C108.012 26.7186 107.845 26.4695 107.636 26.2596C107.426 26.0497 107.176 25.8833 106.902 25.7697C106.628 25.6561 106.334 25.5977 106.037 25.5977H50.5872C50.2904 25.5977 49.9965 25.6561 49.7223 25.7697C49.4481 25.8833 49.199 26.0497 48.9891 26.2596C48.7792 26.4695 48.6128 26.7186 48.4992 26.9928C48.3856 27.267 48.3271 27.5609 48.3271 27.8577V28.8551H108.297V27.8577Z" fill="#DFE8FC" stroke="#1A1A1A" stroke-width="0.5" stroke-linecap="round" stroke-linejoin="round"/>
<path d="M107.221 46.2412H49.404C48.8092 46.2412 48.3271 46.7233 48.3271 47.318V55.1987C48.3271 55.7934 48.8092 56.2755 49.404 56.2755H107.221C107.815 56.2755 108.298 55.7934 108.298 55.1987V47.318C108.298 46.7233 107.815 46.2412 107.221 46.2412Z" fill="#49E5DB" stroke="#1A1A1A" stroke-width="0.5" stroke-linecap="round" stroke-linejoin="round"/>
<path d="M71.7674 118.61C70.353 117.291 68.7937 115.633 69.125 113.728C69.3751 112.29 70.6281 111.284 71.5133 110.124C72.7372 108.52 73.3088 106.383 72.8465 104.419C72.3842 102.455 70.8224 100.74 68.857 100.284C66.8915 99.8273 64.6332 100.774 63.7393 102.583C63.0388 104 63.1978 105.667 63.0533 107.242C62.9088 108.817 62.2344 110.584 60.7247 111.055C59.4638 111.447 58.1286 110.773 57.0533 110.006C55.978 109.239 54.9106 108.324 53.6006 108.156C52.0633 107.959 50.5255 108.914 49.747 110.254C48.9685 111.594 48.8602 113.24 49.1332 114.766C49.4061 116.292 50.0311 117.729 50.651 119.149L46.5749 123.819L45.2373 139.388H59.242C60.6859 138.737 62.0341 137.88 63.3723 137.026C64.478 136.321 65.5837 135.616 66.6894 134.911C67.4377 134.433 68.2676 133.824 68.3174 132.938C68.4184 131.141 65.3576 130.446 65.4078 128.646C65.4283 127.913 66.0206 127.297 66.6957 127.01C67.3708 126.723 68.1229 126.695 68.855 126.648C69.977 126.577 71.119 126.444 72.1386 125.971C73.1583 125.497 74.0496 124.628 74.2916 123.53C74.7078 121.641 73.1818 119.929 71.7674 118.61Z" fill="#49E5DB" stroke="#49E5DB" stroke-width="0.5" stroke-linecap="round" stroke-linejoin="round"/>
<path d="M65.839 109.904C65.839 109.904 64.358 118.514 59.7546 122.75C55.1512 126.986 54.3595 132.659 54.5575 135.166C54.7554 137.673 52.4463 139.389 52.4463 139.389M60.4951 131.472C60.4951 131.472 56.3637 130.051 54.6689 132.543M55.1512 120.512C55.1512 120.512 57.105 121.461 56.9858 126.103M66.3008 118.475C66.3008 118.475 64.9063 120.51 61.4142 120.878" stroke="white" stroke-linecap="round" stroke-linejoin="round"/>
<path d="M51.4795 135.799C52.9329 132.947 51.4716 130.684 49.0574 129.111C46.6731 126.894 48.4706 125.438 50.5913 124.09C54.4023 120.762 50.6097 114.7 45.9454 116.691C44.2694 117.502 42.3232 119.829 40.3684 118.469C39.2452 117.58 39.616 115.844 39.7361 114.416C40.1093 110.836 37.41 105.732 33.3267 106.387C31.508 106.843 30.4716 108.804 28.7796 109.611C23.7803 111.782 19.9023 104.745 15.0288 105.203C5.58075 107.322 8.57815 123.842 22.1102 121.802C23.1914 121.891 24.3224 122.3 24.9266 123.201C26.8909 126.283 21.8651 129.932 23.7432 133.027C25.3806 135.38 28.6313 134.166 31.0091 134.117C34.3456 134.014 35.6768 136.927 33.8317 139.389H46.7924C48.7356 138.728 50.4888 137.669 51.4795 135.799Z" fill="white" stroke="#49E5DB" stroke-width="0.5" stroke-linecap="round" stroke-linejoin="round"/>
<path d="M38.2456 139.389L39.2847 137.409C43.8369 121.675 19.9873 113.461 19.9873 113.461M41.4618 125.039C41.4618 125.039 42.0085 128.55 39.5415 130.605L41.4618 125.039ZM31.4008 113.461C31.4668 113.626 33.4027 116.872 31.8245 119.9L31.4008 113.461ZM31.6317 124.71C31.6317 124.71 35.8017 124.227 37.3123 125.573L31.6317 124.71ZM21.0429 115.902C21.0429 115.902 23.3154 116.63 25.3624 115.837L21.0429 115.902Z" fill="white"/>
<path d="M38.2456 139.389L39.2847 137.409C43.8369 121.675 19.9873 113.461 19.9873 113.461M41.4618 125.039C41.4618 125.039 42.0085 128.55 39.5415 130.605M31.4008 113.461C31.4668 113.626 33.4027 116.872 31.8245 119.9M31.6317 124.71C31.6317 124.71 35.8017 124.227 37.3123 125.573M21.0429 115.902C21.0429 115.902 23.3154 116.63 25.3624 115.837" stroke="#49E5DB" stroke-linecap="round" stroke-linejoin="round"/>
<path d="M57.4316 70.4391L58.5385 67.999L60.6794 69.0316L59.6335 71.4333L57.4316 70.4391Z" fill="#4B44F6" stroke="#4B44F6" stroke-linecap="round" stroke-linejoin="round"/>
<path d="M90.6175 135.535C90.4363 134.944 90.2185 134.262 90.1632 134.207C90.0642 134.108 87.0212 134.207 87.0212 134.207C87.0212 134.207 86.5482 134.436 85.8428 134.79C87.0114 136.174 88.8377 136.078 90.6175 135.535Z" fill="#1C0311" stroke="#1A1A1A" stroke-linecap="round" stroke-linejoin="round"/>
<path d="M91.1112 138.125C91.1534 137.722 91.0902 137.175 90.8808 136.409C90.8808 136.409 90.7605 136 90.6176 135.535C88.8378 136.078 87.0115 136.174 85.8429 134.79C83.8819 135.774 80.1232 137.728 79.7229 138.438C79.4752 138.877 79.3461 139.429 79.4297 139.897C83.3324 140.249 87.5881 139.839 91.1112 138.125Z" fill="#4B44F6" stroke="#1A1A1A" stroke-linecap="round" stroke-linejoin="round"/>
<path d="M79.4297 139.897C79.5298 140.458 79.9352 140.9 80.8114 140.887C82.4195 140.862 88.3085 139.923 89.4952 139.501C90.2836 139.221 91.009 139.101 91.1112 138.124C87.588 139.838 83.3324 140.248 79.4297 139.897Z" fill="white" stroke="#1A1A1A" stroke-linecap="round" stroke-linejoin="round"/>
<path d="M132.313 131.477C131.548 130.691 130.861 130.101 130.861 130.101L126.853 132.055C126.853 132.055 126.267 132.611 125.49 133.35C127.967 133.95 130.816 133.347 132.313 131.477Z" fill="#1C0311" stroke="#1A1A1A" stroke-linecap="round" stroke-linejoin="round"/>
<path d="M124.775 138.353C123.592 138.691 122.28 138.835 121.034 138.593C121.075 138.738 121.135 138.877 121.212 139.007C121.682 139.823 124.799 139.13 127.917 138.042C130.798 137.036 134.313 135.712 134.282 134.287C131.821 136.855 127.946 137.164 124.775 138.353Z" fill="white" stroke="#1A1A1A" stroke-linecap="round" stroke-linejoin="round"/>
<path d="M132.314 131.477C130.816 133.347 127.968 133.95 125.491 133.35C124.162 134.615 122.275 136.42 121.806 136.904C121.197 137.533 120.872 137.996 121.035 138.593C122.28 138.836 123.592 138.691 124.776 138.353C127.946 137.164 131.822 136.855 134.282 134.287C134.279 134.166 134.251 134.046 134.201 133.935C133.861 133.17 133.051 132.233 132.314 131.477Z" fill="#4B44F6" stroke="#1A1A1A" stroke-linecap="round" stroke-linejoin="round"/>
<path d="M110.013 95.3315C111.267 107.471 125.517 131.98 125.814 132.277C126.111 132.574 130.465 132.871 131.158 130.793C131.851 128.714 127.199 113.079 125.517 107.735C126.705 102.094 127.1 86.557 124.033 80.4024C120.965 74.2479 116.314 73.4941 116.314 73.4941L108.298 76.1661" fill="white"/>
<path d="M110.013 95.3315C111.267 107.471 125.517 131.98 125.814 132.277C126.111 132.574 130.465 132.871 131.158 130.793C131.851 128.714 127.199 113.079 125.517 107.735C126.705 102.094 127.1 86.557 124.033 80.4024C120.965 74.2479 116.314 73.4941 116.314 73.4941L108.298 76.1661" stroke="#1A1A1A" stroke-width="0.5" stroke-linecap="round" stroke-linejoin="round"/>
<path d="M117.062 82.7479C117.062 82.7479 118.986 86.5579 115.126 92.8914C110.425 100.607 97.3464 103.711 93.6847 104.899C94.7072 113.211 91.8046 132.146 90.2872 135.049C88.7038 136.104 86.3288 134.587 86.3288 134.587C86.3288 134.587 82.1064 113.013 84.0856 101.468C86.0649 89.9226 103.812 79.5647 103.812 79.5647L112.355 76.167" fill="white"/>
<path d="M117.062 82.7479C117.062 82.7479 118.986 86.5579 115.126 92.8914C110.425 100.607 97.3464 103.711 93.6847 104.899C94.7072 113.211 91.8046 132.146 90.2872 135.049C88.7038 136.104 86.3288 134.587 86.3288 134.587C86.3288 134.587 82.1064 113.013 84.0856 101.468C86.0649 89.9226 103.812 79.5647 103.812 79.5647L112.355 76.167" stroke="#1A1A1A" stroke-width="0.5" stroke-linecap="round" stroke-linejoin="round"/>
<path d="M102.147 80.6052C102.147 80.6052 107.138 81.7886 110.111 80.7181C113.085 79.6475 116.557 78.1011 117.062 75.3652L117.051 74.0146L103.173 79.5285L102.147 80.6052Z" fill="#1C0311" stroke="#1A1A1A" stroke-linecap="round" stroke-linejoin="round"/>
<path d="M99.2423 49.9421C99.2423 49.9421 97.6094 46.3795 97.8568 44.7467C98.1042 43.1138 101.667 41.283 97.9063 37.9678C94.1458 34.6526 91.5728 38.4132 91.3254 40.0955C91.078 41.7778 91.078 44.6477 94.0963 45.3899L93.9974 50.9317" fill="#F9D3DC"/>
<path d="M99.2423 49.9421C99.2423 49.9421 97.6094 46.3795 97.8568 44.7467C98.1042 43.1138 101.667 41.283 97.9063 37.9678C94.1458 34.6526 91.5728 38.4132 91.3254 40.0955C91.078 41.7778 91.078 44.6477 94.0963 45.3899L93.9974 50.9317" stroke="#1A1A1A" stroke-linecap="round" stroke-linejoin="round"/>
<path d="M95.2292 45.1641L94.0969 45.3893L94.0879 45.8911L95.2292 45.1641Z" fill="#1C0311" stroke="#1A1A1A" stroke-linecap="round" stroke-linejoin="round"/>
<path d="M112.677 31.8321C112.677 31.8321 110.45 28.888 107.778 28.7396C105.106 28.5911 104.611 29.8529 105.23 30.5951C105.848 31.3373 107.407 31.5847 107.753 31.5847C108.1 31.5847 106.714 32.3022 106.838 32.599C106.962 32.8959 108.124 32.7227 108.718 32.5001C109.312 32.2774 110.475 32.2032 110.772 32.6485C111.068 33.0938 112.677 31.8321 112.677 31.8321Z" fill="#F9D3DC" stroke="#1A1A1A" stroke-linecap="round" stroke-linejoin="round"/>
<path d="M100.034 50.1891C100.034 50.1891 109.188 51.3766 111.563 47.3687C113.938 43.3608 112.88 36.1937 110.376 33.2173C109.79 32.6188 110.425 31.9802 111.167 31.6834C111.909 31.3865 112.701 30.8422 113.889 32.5245C115.076 34.2069 119.925 42.3711 118.963 49.9911C118.079 56.9904 114.878 60.58 110.376 61.1242C105.625 56.4731 100.034 50.1891 100.034 50.1891Z" fill="#4B44F6" stroke="#1A1A1A" stroke-linecap="round" stroke-linejoin="round"/>
<path d="M63.5674 45.2665C63.5674 45.2665 60.747 41.7534 60.6481 40.3184C60.5491 38.8835 60.846 38.1413 61.7366 37.9186C62.6273 37.696 62.9737 39.0814 63.6664 39.3783C64.3591 39.6752 65.324 38.5619 65.4724 39.4773C65.6209 40.3927 64.3838 42.2482 64.4828 43.2625C64.5818 44.2769 65.0023 44.5738 65.0023 44.5738L63.5674 45.2665Z" fill="#F9D3DC" stroke="#1A1A1A" stroke-linecap="round" stroke-linejoin="round"/>
<path d="M95.9279 61.718C74.5029 65.7754 63.1665 45.7265 62.9504 45.2733C62.7344 44.8202 64.1843 43.4513 64.8872 43.8061C65.59 44.1609 79.3025 51.3766 90.2871 50.7828C93.5037 50.5866 93.825 50.5602 94.9878 50.0901C96.1506 49.6201 99.441 48.8036 100.356 49.5211C101.272 50.2386 104.933 52.3662 109.782 58.5018C114.632 64.6374 117.501 73.1975 117.007 74.7314C116.512 76.2653 112.454 80.8175 104.142 80.3722C98.1545 79.8774 88.2153 69.4107 86.0381 61.8897" fill="#4B44F6"/>
<path d="M95.9279 61.718C74.5029 65.7754 63.1665 45.7265 62.9504 45.2733C62.7344 44.8202 64.1843 43.4513 64.8872 43.8061C65.59 44.1609 79.3025 51.3766 90.2871 50.7828C93.5037 50.5866 93.825 50.5602 94.9878 50.0901C96.1506 49.6201 99.441 48.8036 100.356 49.5211C101.272 50.2386 104.933 52.3662 109.782 58.5018C114.632 64.6374 117.501 73.1975 117.007 74.7314C116.512 76.2653 112.454 80.8175 104.142 80.3722C98.1545 79.8774 88.2153 69.4107 86.0381 61.8897" stroke="#1A1A1A" stroke-linecap="round" stroke-linejoin="round"/>
<path d="M91.4523 37.0561C91.1845 34.7902 93.8549 33.4179 95.7964 34.2483C98.6104 35.0587 98.8083 38.8385 101.417 39.8305C102.106 40.0426 102.862 39.9482 103.549 40.1657C105.779 40.8993 105.899 43.9797 104.306 45.4481C102.319 47.5085 97.8614 47.9858 96.8899 44.685C96.508 43.6308 95.4191 42.4115 97.1435 42.0149C98.8395 41.2278 98.2168 39.3118 96.3306 39.9695C95.4164 39.9338 94.5489 39.4525 93.6992 39.141C92.6513 38.8631 91.5744 38.2471 91.4523 37.0561Z" fill="#1C0311" stroke="#1A1A1A" stroke-linecap="round" stroke-linejoin="round"/>
<path d="M26.561 54.2148H10.1123V65.3268H26.561V54.2148Z" fill="white" stroke="#1A1A1A" stroke-width="0.5" stroke-linecap="round" stroke-linejoin="round"/>
<path d="M14.7969 61.5966L17.2562 57.3369L19.7156 61.5966H14.7969Z" fill="#F8DC29" stroke="#1A1A1A" stroke-width="0.5" stroke-linecap="round" stroke-linejoin="round"/>
<path d="M20.274 61.7725C21.4829 61.7725 22.463 60.7697 22.463 59.5327C22.463 58.2958 21.4829 57.293 20.274 57.293C19.065 57.293 18.085 58.2958 18.085 59.5327C18.085 60.7697 19.065 61.7725 20.274 61.7725Z" fill="#FF6666" stroke="#1A1A1A" stroke-width="0.5" stroke-linecap="round" stroke-linejoin="round"/>
</svg>
