<svg width="468" height="448" viewBox="0 0 468 448" fill="none" xmlns="http://www.w3.org/2000/svg">
<g opacity="0.73">
<g style="mix-blend-mode:multiply">
<g style="mix-blend-mode:multiply">
<path d="M133.704 34.6235L131.254 31.1535C130.924 30.6931 130.434 30.3711 129.881 30.2492C129.327 30.1274 128.748 30.2144 128.254 30.4935C125.045 32.3165 122.159 34.6581 119.714 37.4235C119.329 37.8455 119.115 38.3967 119.115 38.9685C119.115 39.5403 119.329 40.0914 119.714 40.5135L122.654 43.6935C122.99 44.0532 123.198 44.5125 123.249 45.0015C123.299 45.4906 123.189 45.9828 122.934 46.4035C122.044 47.8714 121.297 49.4219 120.704 51.0335C120.548 51.4432 120.275 51.7984 119.92 52.0559C119.565 52.3134 119.143 52.4619 118.704 52.4835L113.764 52.6735C113.233 52.6947 112.725 52.8997 112.327 53.2535C111.93 53.6072 111.667 54.0878 111.584 54.6135C110.986 58.362 111.013 62.1838 111.664 65.9235C111.762 66.4679 112.052 66.9591 112.482 67.3077C112.911 67.6564 113.452 67.8394 114.004 67.8235L118.574 67.6635C119.046 67.6463 119.512 67.7767 119.906 68.0366C120.301 68.2965 120.604 68.673 120.774 69.1135C121.066 69.9302 121.4 70.7313 121.774 71.5135C122.144 72.2535 122.534 72.9735 122.964 73.6635C123.2 74.0561 123.311 74.5112 123.283 74.9684C123.254 75.4255 123.087 75.8633 122.804 76.2235L119.884 79.9835C119.543 80.4161 119.368 80.957 119.392 81.5076C119.416 82.0582 119.637 82.5819 120.014 82.9835C122.571 85.7919 125.575 88.1573 128.904 89.9835C129.387 90.245 129.947 90.3262 130.484 90.2126C131.02 90.099 131.499 89.798 131.834 89.3635L134.664 85.6535C134.947 85.2802 135.338 85.0038 135.784 84.8623C136.23 84.7207 136.709 84.7212 137.154 84.8635C138.891 85.4221 140.68 85.7974 142.494 85.9835C142.993 86.0376 143.46 86.2553 143.822 86.6027C144.183 86.95 144.42 87.4074 144.494 87.9035L145.144 92.0835C145.236 92.6531 145.536 93.1681 145.988 93.5271C146.439 93.8861 147.009 94.0632 147.584 94.0235C151.347 93.7151 155.031 92.7789 158.484 91.2535C158.967 91.0527 159.367 90.6941 159.62 90.2364C159.872 89.7787 159.962 89.2488 159.874 88.7335L158.984 83.6635C158.906 83.2422 158.95 82.8072 159.111 82.4102C159.273 82.0131 159.544 81.6707 159.894 81.4235C161.26 80.4837 162.532 79.4155 163.694 78.2335C164.043 77.884 164.497 77.6578 164.986 77.5892C165.475 77.5206 165.973 77.6134 166.404 77.8535L170.174 79.9335C170.675 80.2066 171.259 80.2841 171.813 80.1511C172.367 80.018 172.853 79.6839 173.174 79.2135C175.291 76.1138 176.885 72.6884 177.894 69.0735C178.042 68.5567 178.003 68.0047 177.786 67.5134C177.568 67.022 177.186 66.6222 176.704 66.3835L172.344 64.2435C171.938 64.0469 171.6 63.7333 171.374 63.343C171.148 62.9527 171.043 62.5036 171.075 62.0535C171.212 60.3682 171.186 58.6735 170.994 56.9935C170.94 56.5168 171.039 56.035 171.278 55.6191C171.518 55.2032 171.885 54.8753 172.325 54.6835L176.414 52.8535C176.926 52.6245 177.336 52.2167 177.568 51.7066C177.8 51.1966 177.838 50.6194 177.674 50.0835C177.148 48.322 176.479 46.6063 175.674 44.9535C174.85 43.2645 173.883 41.6487 172.784 40.1235C172.458 39.6579 171.97 39.3305 171.416 39.2048C170.861 39.0791 170.28 39.1642 169.784 39.4435L165.894 41.5935C165.47 41.8277 164.982 41.9201 164.502 41.8571C164.022 41.7942 163.574 41.5791 163.224 41.2435C161.901 39.97 160.446 38.8404 158.884 37.8735C158.469 37.6169 158.147 37.2331 157.967 36.7792C157.787 36.3252 157.758 35.8252 157.884 35.3535L159.034 31.0835C159.181 30.5383 159.122 29.9581 158.867 29.4543C158.612 28.9504 158.181 28.5584 157.654 28.3535C154.192 26.9906 150.531 26.197 146.814 26.0035C146.254 25.9727 145.702 26.1478 145.262 26.4959C144.821 26.844 144.524 27.3411 144.424 27.8935L143.664 32.2935C143.585 32.7695 143.354 33.2073 143.007 33.5422C142.659 33.8771 142.213 34.0914 141.734 34.1535C139.896 34.3942 138.089 34.8335 136.344 35.4635C135.873 35.6294 135.36 35.6371 134.884 35.4855C134.407 35.334 133.993 35.0314 133.704 34.6235ZM151.064 43.6235C170.914 53.7435 161.744 80.7035 139.844 76.6235C139.604 76.5817 139.372 76.5042 139.154 76.3935C119.324 66.2735 128.484 39.3235 150.384 43.3935C150.619 43.4226 150.849 43.4867 151.064 43.5835V43.6235Z" fill="#EDF5FF"/>
</g>
<g style="mix-blend-mode:multiply">
<path d="M81.2746 66.3335L79.2746 63.5135C79.009 63.1347 78.6112 62.8692 78.1595 62.7692C77.7079 62.6692 77.2352 62.7421 76.8346 62.9735C74.2491 64.4495 71.9218 66.3377 69.9446 68.5635C69.6347 68.9041 69.463 69.348 69.463 69.8085C69.463 70.2689 69.6347 70.7129 69.9446 71.0535L72.3146 73.6135C72.5839 73.9049 72.7519 74.2756 72.7934 74.6703C72.8348 75.0649 72.7475 75.4624 72.5446 75.8035C71.8252 76.9856 71.2224 78.2348 70.7446 79.5335C70.6175 79.8679 70.3935 80.1569 70.1014 80.3635C69.8093 80.5701 69.4623 80.685 69.1046 80.6935L65.1046 80.8535C64.6758 80.8691 64.2658 81.0332 63.9448 81.3178C63.6237 81.6024 63.4115 81.9897 63.3446 82.4135C62.8627 85.433 62.8864 88.5117 63.4146 91.5235C63.4912 91.9629 63.7232 92.3603 64.0683 92.643C64.4134 92.9256 64.8486 93.0749 65.2946 93.0635L68.9746 92.9335C69.3552 92.9174 69.7312 93.0219 70.049 93.2319C70.3668 93.442 70.6102 93.747 70.7446 94.1035C70.9846 94.7535 71.2646 95.3935 71.5746 96.0335C71.8846 96.6735 72.1946 97.2135 72.5746 97.7735C72.7682 98.0882 72.8597 98.4552 72.8364 98.8241C72.8131 99.1929 72.6762 99.5455 72.4446 99.8335L70.0946 102.833C69.8296 103.18 69.6953 103.608 69.7154 104.044C69.7356 104.479 69.9088 104.893 70.2046 105.213C72.263 107.468 74.6829 109.364 77.3646 110.823C77.7527 111.036 78.2043 111.103 78.6373 111.011C79.0703 110.919 79.4561 110.675 79.7246 110.323L82.0046 107.323C82.2338 107.027 82.5478 106.807 82.905 106.692C83.2622 106.578 83.6456 106.575 84.0046 106.683C85.4021 107.136 86.8434 107.441 88.3046 107.593C88.7083 107.636 89.0865 107.811 89.3798 108.091C89.673 108.372 89.8647 108.742 89.9246 109.143L90.4446 112.503C90.5187 112.968 90.7663 113.388 91.1374 113.677C91.5086 113.967 91.9757 114.105 92.4446 114.063C95.4672 113.854 98.4324 113.133 101.215 111.933C101.598 111.773 101.916 111.489 102.119 111.127C102.322 110.764 102.398 110.344 102.335 109.933L101.615 105.853C101.551 105.514 101.585 105.162 101.715 104.842C101.844 104.521 102.063 104.244 102.345 104.043C103.447 103.285 104.475 102.425 105.415 101.473C105.695 101.192 106.059 101.01 106.453 100.954C106.846 100.898 107.247 100.972 107.595 101.163L110.595 102.843C110.998 103.065 111.469 103.128 111.917 103.021C112.364 102.914 112.756 102.644 113.015 102.263C114.724 99.7674 116.011 97.0073 116.825 94.0935C116.939 93.6719 116.902 93.2234 116.719 92.8267C116.536 92.4299 116.22 92.1101 115.825 91.9235L112.305 90.1935C111.982 90.0321 111.715 89.7787 111.537 89.4653C111.359 89.152 111.278 88.7929 111.305 88.4335C111.416 87.0745 111.393 85.7078 111.235 84.3535C111.197 83.9693 111.281 83.583 111.475 83.2492C111.668 82.9154 111.962 82.651 112.315 82.4935L115.615 81.0235C116.024 80.8369 116.351 80.5075 116.535 80.0971C116.719 79.6867 116.748 79.2232 116.615 78.7935C116.184 77.3704 115.635 75.9856 114.975 74.6535C114.305 73.2955 113.526 71.9945 112.645 70.7635C112.38 70.395 111.991 70.1358 111.549 70.0345C111.107 69.9332 110.643 69.9969 110.245 70.2135L107.115 71.9435C106.774 72.1352 106.381 72.2115 105.993 72.161C105.605 72.1105 105.245 71.936 104.965 71.6635C103.896 70.6402 102.723 69.7319 101.465 68.9535C101.138 68.7464 100.885 68.4418 100.741 68.0828C100.598 67.7238 100.571 67.3286 100.665 66.9535L101.595 63.5235C101.714 63.0844 101.667 62.6165 101.462 62.2102C101.257 61.8039 100.909 61.488 100.485 61.3235C97.6934 60.221 94.7416 59.5793 91.7446 59.4235C91.2923 59.3974 90.8464 59.5391 90.4921 59.8214C90.1378 60.1037 89.9001 60.5068 89.8246 60.9535L89.2046 64.4935C89.1424 64.8788 88.9566 65.2335 88.6752 65.5041C88.3938 65.7747 88.0321 65.9464 87.6446 65.9935C86.1647 66.1882 84.7098 66.5402 83.3046 67.0435C82.9348 67.1577 82.5381 67.1504 82.1727 67.0227C81.8073 66.8949 81.4926 66.6533 81.2746 66.3335ZM95.2746 73.5635C111.275 81.7135 103.875 103.443 86.2746 100.153C86.0838 100.119 85.8987 100.059 85.7246 99.9735C69.7246 91.8135 77.1246 70.0935 94.7746 73.3735C94.9448 73.4174 95.1093 73.4811 95.2646 73.5635H95.2746Z" fill="#EDF5FF"/>
</g>
</g>
</g>
<path d="M101.61 28.05H75.53L67 38.05V14C67 6.24 71.72 0 77.53 0H101.61C107.43 0 112.14 6.29 112.14 14C112.14 21.76 107.43 28.05 101.61 28.05Z" fill="#D4E2FF"/>
<path d="M84.54 13.78C84.54 13.2539 84.384 12.7396 84.0917 12.3022C83.7994 11.8647 83.384 11.5238 82.8979 11.3225C82.4119 11.1211 81.877 11.0685 81.361 11.1711C80.845 11.2737 80.3711 11.5271 79.9991 11.8991C79.6271 12.2711 79.3737 12.7451 79.2711 13.2611C79.1684 13.777 79.2211 14.3119 79.4225 14.7979C79.6238 15.284 79.9647 15.6994 80.4022 15.9917C80.8396 16.284 81.3539 16.44 81.88 16.44C82.5854 16.44 83.262 16.1597 83.7609 15.6609C84.2597 15.1621 84.54 14.4855 84.54 13.78Z" fill="white"/>
<path d="M93.2099 13.78C93.2099 13.2539 93.0539 12.7396 92.7616 12.3022C92.4693 11.8647 92.0539 11.5238 91.5678 11.3225C91.0818 11.1211 90.5469 11.0685 90.031 11.1711C89.515 11.2737 89.041 11.5271 88.669 11.8991C88.297 12.2711 88.0436 12.7451 87.941 13.2611C87.8384 13.777 87.891 14.3119 88.0924 14.7979C88.2937 15.284 88.6346 15.6994 89.0721 15.9917C89.5095 16.284 90.0238 16.44 90.5499 16.44C91.2554 16.44 91.932 16.1597 92.4308 15.6609C92.9296 15.1621 93.2099 14.4855 93.2099 13.78Z" fill="white"/>
<path d="M101.83 13.78C101.83 13.2522 101.673 12.7364 101.379 12.2981C101.085 11.8599 100.667 11.519 100.178 11.3189C99.6901 11.1188 99.1532 11.0685 98.6362 11.1744C98.1191 11.2803 97.6453 11.5377 97.2749 11.9137C96.9045 12.2897 96.6544 12.7674 96.5563 13.286C96.4583 13.8046 96.5167 14.3407 96.7242 14.826C96.9316 15.3113 97.2788 15.7239 97.7215 16.0113C98.1641 16.2987 98.6823 16.4479 99.21 16.44C99.9085 16.4295 100.575 16.1446 101.065 15.6469C101.555 15.1492 101.83 14.4786 101.83 13.78Z" fill="white"/>
<path d="M322.72 58.61H341.83L348.09 65.97V48.3C348.09 42.61 344.63 38 340.36 38H322.72C318.46 38 315 42.61 315 48.3C315 53.99 318.46 58.61 322.72 58.61Z" fill="#1B1687"/>
<path d="M325.89 48.63C325.89 48.2344 325.773 47.8478 325.553 47.5189C325.333 47.19 325.021 46.9336 324.655 46.7822C324.29 46.6309 323.888 46.5913 323.5 46.6684C323.112 46.7456 322.755 46.9361 322.476 47.2158C322.196 47.4955 322.005 47.8519 321.928 48.2398C321.851 48.6278 321.891 49.0299 322.042 49.3954C322.194 49.7608 322.45 50.0732 322.779 50.2929C323.108 50.5127 323.494 50.63 323.89 50.63C324.42 50.63 324.929 50.4193 325.304 50.0442C325.679 49.6691 325.89 49.1604 325.89 48.63Z" fill="white"/>
<path d="M332.88 48.63C332.88 48.2344 332.763 47.8478 332.543 47.5189C332.323 47.19 332.011 46.9336 331.645 46.7822C331.28 46.6309 330.878 46.5913 330.49 46.6684C330.102 46.7456 329.745 46.9361 329.466 47.2158C329.186 47.4955 328.995 47.8519 328.918 48.2398C328.841 48.6278 328.881 49.0299 329.032 49.3954C329.183 49.7608 329.44 50.0732 329.769 50.2929C330.098 50.5127 330.484 50.63 330.88 50.63C331.41 50.63 331.919 50.4193 332.294 50.0442C332.669 49.6691 332.88 49.1604 332.88 48.63Z" fill="white"/>
<path d="M339.88 48.63C339.88 48.2344 339.763 47.8478 339.543 47.5189C339.323 47.19 339.011 46.9336 338.645 46.7822C338.28 46.6309 337.878 46.5913 337.49 46.6684C337.102 46.7456 336.745 46.9361 336.466 47.2158C336.186 47.4955 335.995 47.8519 335.918 48.2398C335.841 48.6278 335.881 49.0299 336.032 49.3954C336.183 49.7608 336.44 50.0732 336.769 50.2929C337.098 50.5127 337.484 50.63 337.88 50.63C338.41 50.63 338.919 50.4193 339.294 50.0442C339.669 49.6691 339.88 49.1604 339.88 48.63Z" fill="white"/>
<path d="M146.119 412.511C148.778 402.651 149.551 392.349 148.396 382.182C148.338 381.684 147.565 381.675 147.631 382.182C148.791 392.265 148.041 402.485 145.421 412.27C145.395 412.372 145.408 412.48 145.459 412.571C145.51 412.662 145.593 412.729 145.691 412.756C145.789 412.783 145.894 412.769 145.982 412.717C146.07 412.664 146.134 412.578 146.161 412.477L146.119 412.511Z" fill="#ABC6FF"/>
<path d="M157.095 410.697C159.61 411.223 162.222 410.857 164.512 409.659C166.801 408.462 168.634 406.502 169.716 404.095C167.414 404.849 164.982 405.077 162.587 404.765C169.915 402.513 174.444 394.905 176.928 387.426C179.237 380.422 180.361 373.059 180.252 365.66L174.344 371.351C176.247 369.305 178.191 367.207 179.329 364.611C180.468 362.015 180.625 358.809 179.047 356.479C173.017 360.163 167.373 364.484 162.205 369.374C161.669 369.799 161.251 370.362 160.992 371.007C160.833 371.78 160.897 372.584 161.175 373.32C161.972 376.248 162.767 379.177 163.559 382.105C162.31 379.506 160.785 377.058 159.014 374.807C151.93 385.729 148.972 398.964 150.706 411.995" fill="#ABC6FF"/>
<path d="M145.388 410.087C145.523 404.839 144.488 399.629 142.364 394.862C140.702 391.217 137.653 387.452 133.797 387.942C131.562 388.226 129.751 389.894 128.164 391.544C123.104 396.813 118.69 402.706 115.02 409.089C113.283 412.107 111.696 415.356 111.48 418.864C117.296 413.843 118.434 404.25 124.99 400.304C125.613 399.926 126.461 399.642 126.992 400.149C128.43 401.533 124.167 403.914 125.53 405.376L130.673 399.857C131.028 399.402 131.496 399.057 132.028 398.86C132.941 398.619 133.822 399.289 134.52 399.934C138.015 403.162 140.969 406.968 143.261 411.196" fill="#ABC6FF"/>
<path d="M148.745 388.544C148.57 380.996 146.668 373.598 143.194 366.958C143.803 370.843 143.55 374.82 142.455 378.589C142.604 373.586 142.638 368.153 139.755 364.13C138.459 362.479 136.926 361.044 135.21 359.875C129.66 355.752 123.787 352.114 117.653 349L121.442 363.975C121.505 364.36 121.679 364.717 121.941 364.998C122.304 365.243 122.74 365.347 123.17 365.29L129.46 365.239C128.056 366.459 126.407 367.34 124.633 367.818C124.151 367.947 123.586 368.11 123.42 368.591C123.343 368.963 123.408 369.352 123.602 369.675C125.956 374.716 129.381 379.14 133.621 382.618C137.862 386.096 142.807 388.536 148.088 389.756" fill="#ABC6FF"/>
<path d="M168.27 366.236C167.814 369.509 167.697 372.823 167.921 376.122C167.921 376.621 168.752 376.629 168.686 376.122C168.457 372.893 168.565 369.647 169.01 366.442C169.076 365.952 168.345 365.737 168.27 366.236Z" fill="white"/>
<path d="M165.088 368.686L166.06 377.523C166.118 378.022 166.891 378.022 166.825 377.523L165.844 368.686C165.786 368.196 165.013 368.187 165.08 368.686H165.088Z" fill="white"/>
<path d="M153.381 407.405C158.098 394.913 164.535 383.193 172.491 372.606C172.79 372.21 172.258 371.652 171.951 372.047C163.899 382.738 157.384 394.578 152.608 407.198C152.434 407.662 153.165 407.869 153.348 407.405H153.381Z" fill="white"/>
<path d="M138.467 373.337C138.168 370.076 137.866 366.818 137.561 363.562C137.561 363.064 136.73 363.064 136.805 363.562L137.702 373.337C137.752 373.835 138.533 373.844 138.467 373.337Z" fill="white"/>
<path d="M133.706 361.345C134.88 364.444 135.654 367.69 136.007 370.998C136.057 371.497 136.838 371.506 136.764 370.998C136.41 367.621 135.631 364.306 134.445 361.138C134.263 360.665 133.531 360.872 133.706 361.345Z" fill="white"/>
<path d="M147.324 386.687C143.918 379.079 138.246 372.801 131.139 368.772C130.715 368.523 130.308 369.202 130.756 369.451C137.747 373.412 143.324 379.589 146.668 387.074C146.875 387.53 147.498 387.134 147.324 386.67V386.687Z" fill="white"/>
<path d="M134.271 392.593L129.286 397.751C129.23 397.827 129.203 397.922 129.209 398.018C129.216 398.114 129.256 398.204 129.322 398.271C129.388 398.338 129.476 398.379 129.569 398.384C129.661 398.39 129.753 398.36 129.826 398.301L134.811 393.186C134.878 393.111 134.914 393.012 134.912 392.91C134.91 392.808 134.87 392.711 134.8 392.639C134.73 392.566 134.636 392.525 134.538 392.523C134.439 392.521 134.343 392.558 134.271 392.627V392.593Z" fill="white"/>
<path d="M131.72 392.18C127.335 395.176 123.332 398.731 119.805 402.763C119.481 403.141 120.013 403.7 120.346 403.321C123.823 399.331 127.773 395.81 132.102 392.842C132.51 392.567 132.102 391.879 131.72 392.163V392.18Z" fill="white"/>
<path d="M131.147 393.702C131.862 393.279 132.684 393.092 133.505 393.164C134.325 393.236 135.105 393.565 135.741 394.106C137.008 395.221 137.994 396.637 138.616 398.232C140.237 401.762 141.455 405.475 142.247 409.296C142.355 409.794 143.078 409.588 142.987 409.089C142.135 404.774 140.7 400.604 138.724 396.702C137.974 395.056 136.734 393.703 135.185 392.842C134.494 392.481 133.727 392.307 132.954 392.336C132.182 392.365 131.428 392.595 130.764 393.005C130.357 393.28 130.764 393.968 131.147 393.693V393.702Z" fill="white"/>
<path d="M157.195 446.948H138.483C135.764 446.948 133.156 445.831 131.234 443.841C129.311 441.852 128.23 439.154 128.23 436.34V407.834H167.448V436.34C167.448 439.154 166.368 441.852 164.445 443.841C162.522 445.831 159.914 446.948 157.195 446.948Z" fill="#423CCB"/>
<g style="mix-blend-mode:multiply" opacity="0.28">
<path d="M138.475 447H157.195C159.914 447 162.522 445.882 164.445 443.893C166.367 441.904 167.448 439.205 167.448 436.392V407.886" fill="#3041B0"/>
</g>
<g opacity="0.59">
<path d="M168.27 420.102C163.023 420.715 157.91 422.226 153.14 424.572C148.421 426.764 143.859 429.334 138.957 431.097C135.885 432.2 132.697 432.922 129.46 433.246C128.97 433.289 128.97 434.105 129.46 434.028C134.708 433.414 139.821 431.904 144.59 429.558C149.31 427.366 153.871 424.795 158.773 423.033C161.844 421.921 165.032 421.19 168.27 420.858C168.752 420.815 168.761 419.998 168.27 420.076V420.102Z" fill="white"/>
</g>
<path d="M225.22 240.45C224.747 264.857 224.99 289.27 225.95 313.69C226.19 319.81 226.477 325.93 226.81 332.05C227.1 337.47 227.12 343.05 228.05 348.39C228.81 352.75 230.61 357.15 234.55 359.52C237.74 361.44 242.1 361.95 245.1 359.39C248.74 356.3 248.44 350.98 249.46 346.73C250.041 344.138 251.458 341.809 253.492 340.101C255.527 338.393 258.067 337.402 260.72 337.28C261.54 337.28 261.55 335.97 260.72 336C258.714 336.084 256.753 336.617 254.98 337.56C253.208 338.504 251.67 339.833 250.48 341.45C247.94 344.9 247.96 349.15 247.06 353.16C246.744 355.283 245.68 357.223 244.06 358.63C243.217 359.216 242.254 359.61 241.241 359.783C240.229 359.956 239.19 359.904 238.2 359.63C233.36 358.47 230.74 354.22 229.67 349.63C228.45 344.42 228.52 338.84 228.23 333.53C227.91 327.657 227.627 321.787 227.38 315.92C226.9 304.087 226.583 292.253 226.43 280.42C226.263 267.087 226.31 253.753 226.57 240.42C226.55 240.263 226.474 240.118 226.355 240.013C226.237 239.908 226.084 239.85 225.925 239.85C225.767 239.85 225.614 239.908 225.495 240.013C225.376 240.118 225.3 240.263 225.28 240.42L225.22 240.45Z" fill="#D4E2FF"/>
<path d="M264.13 332.9H252.19V344.84H264.13V332.9Z" fill="white"/>
<path d="M264.13 316.7H252.19V328.64H264.13V316.7Z" fill="#D4E2FF"/>
<path d="M264.13 349.95H252.19V361.89H264.13V349.95Z" fill="#D4E2FF"/>
<path d="M329.51 213.9V87.85C329.51 80.7531 323.757 75 316.66 75L134.85 75C127.753 75 122 80.7531 122 87.85V213.9C122 220.997 127.753 226.75 134.85 226.75H316.66C323.757 226.75 329.51 220.997 329.51 213.9Z" stroke="white" stroke-width="2" stroke-miterlimit="10"/>
<path d="M309.31 79.5801H140.08C133.066 79.5801 127.38 85.2661 127.38 92.2801V209.47C127.38 216.484 133.066 222.17 140.08 222.17H309.31C316.324 222.17 322.01 216.484 322.01 209.47V92.2801C322.01 85.2661 316.324 79.5801 309.31 79.5801Z" fill="#D4E2FF"/>
<path opacity="0.48" d="M186.86 79.0601H245.16C256.36 90.6101 302.5 202.46 317.52 217.06C316.476 218.598 315.076 219.862 313.44 220.745C311.804 221.627 309.979 222.102 308.12 222.13H261.2C247.63 211.02 188.94 81.3501 186.86 79.0601Z" fill="white" stroke="#FBF9F5" stroke-width="0.28" stroke-miterlimit="10"/>
<path opacity="0.48" d="M203.71 221.73C201.95 219.73 200.2 217.81 198.46 215.83C184.46 200.02 132.46 79.5801 135.99 79.5801H161.85C161.85 79.7001 230.22 222.43 229.85 222.17H203.99C203.921 222.009 203.826 221.861 203.71 221.73Z" fill="white" stroke="#FBF9F5" stroke-width="0.28" stroke-miterlimit="10"/>
<path d="M127.38 208.73C127.38 216.16 132.76 222.17 139.38 222.17H311.23C317.86 222.17 323.23 216.17 323.23 208.73H127.38Z" fill="#18004C"/>
<path d="M144.28 90.38C144.28 89.7669 144.098 89.1676 143.758 88.6578C143.417 88.148 142.933 87.7506 142.366 87.516C141.8 87.2814 141.177 87.22 140.575 87.3396C139.974 87.4592 139.422 87.7545 138.988 88.188C138.555 88.6215 138.259 89.1739 138.14 89.7753C138.02 90.3766 138.081 90.9999 138.316 91.5663C138.551 92.1328 138.948 92.617 139.458 92.9576C139.968 93.2982 140.567 93.48 141.18 93.48C141.588 93.4813 141.991 93.4021 142.368 93.2468C142.745 93.0914 143.087 92.8631 143.375 92.575C143.663 92.2869 143.891 91.9446 144.047 91.5679C144.202 91.1912 144.281 90.7875 144.28 90.38Z" fill="#3041B0"/>
<path d="M155.11 90.38C155.11 89.7669 154.928 89.1676 154.587 88.6578C154.247 88.148 153.763 87.7506 153.196 87.516C152.63 87.2814 152.006 87.22 151.405 87.3396C150.804 87.4592 150.251 87.7545 149.818 88.188C149.384 88.6215 149.089 89.1739 148.969 89.7753C148.85 90.3766 148.911 90.9999 149.146 91.5663C149.381 92.1328 149.778 92.617 150.288 92.9576C150.797 93.2982 151.397 93.48 152.01 93.48C152.417 93.4813 152.821 93.4021 153.198 93.2468C153.575 93.0914 153.917 92.8631 154.205 92.575C154.493 92.2869 154.721 91.9446 154.877 91.5679C155.032 91.1912 155.111 90.7875 155.11 90.38Z" fill="white"/>
<path d="M165.94 90.38C165.94 89.7669 165.758 89.1676 165.418 88.6578C165.077 88.148 164.593 87.7506 164.026 87.516C163.46 87.2814 162.837 87.22 162.235 87.3396C161.634 87.4592 161.082 87.7545 160.648 88.188C160.214 88.6215 159.919 89.1739 159.8 89.7753C159.68 90.3766 159.741 90.9999 159.976 91.5663C160.211 92.1328 160.608 92.617 161.118 92.9576C161.628 93.2982 162.227 93.48 162.84 93.48C163.247 93.4813 163.651 93.4021 164.028 93.2468C164.405 93.0914 164.747 92.8631 165.035 92.575C165.323 92.2869 165.551 91.9446 165.707 91.5679C165.862 91.1912 165.941 90.7875 165.94 90.38Z" fill="#EE3A58"/>
<path d="M197.969 161.773C203.782 147.015 196.531 130.339 181.773 124.526C167.015 118.713 150.339 125.964 144.526 140.722C138.713 155.48 145.964 172.156 160.722 177.969C175.48 183.782 192.156 176.531 197.969 161.773Z" fill="white"/>
<path d="M182.303 177.76C175.305 180.535 167.498 180.451 160.561 177.527C153.625 174.602 148.113 169.071 145.214 162.124C142.315 155.177 142.259 147.369 145.058 140.381C147.858 133.393 153.289 127.784 160.183 124.76L182.303 177.76Z" fill="#3041B0"/>
<path d="M182.463 177.82C185.945 176.37 189.106 174.247 191.767 171.574C194.428 168.901 196.536 165.73 197.97 162.242C199.405 158.753 200.139 155.017 200.129 151.245C200.119 147.474 199.366 143.741 197.913 140.26L171.293 151.36L182.463 177.82Z" fill="#18004C"/>
<path d="M171.433 151.71L203.623 138.28C201.871 134.071 199.305 130.25 196.072 127.036C192.839 123.822 189.003 121.278 184.783 119.55L171.433 151.71Z" fill="#EE3A58"/>
<g opacity="0.54">
<path d="M240.13 173.97H248.87V190.58H240.13" fill="#3041B0"/>
</g>
<path d="M262.9 158.33H254.17V190.58H262.9V158.33Z" fill="#1B1687"/>
<g opacity="0.54">
<path d="M275.79 155.07H267.48V190.58H275.79V155.07Z" fill="#3041B0"/>
</g>
<path d="M290.11 141.14H281.8V190.58H290.11V141.14Z" fill="#1B1687"/>
<path d="M236.97 167.1L252.87 151.35H267.9L282.22 130.16" stroke="#A5B4FC" stroke-width="0.25" stroke-miterlimit="10"/>
<path d="M282.64 131.84V130H280.79L282.64 131.84Z" fill="#EE3A58" stroke="#EE3A58" stroke-width="0.87" stroke-miterlimit="10"/>
<path d="M237.83 166.68C237.832 166.537 237.791 166.396 237.713 166.276C237.635 166.156 237.522 166.063 237.39 166.007C237.258 165.951 237.113 165.936 236.972 165.963C236.832 165.991 236.702 166.06 236.601 166.161C236.5 166.262 236.431 166.391 236.403 166.532C236.376 166.673 236.391 166.818 236.447 166.95C236.503 167.082 236.596 167.194 236.716 167.273C236.836 167.351 236.977 167.392 237.12 167.39C237.308 167.39 237.489 167.315 237.622 167.182C237.755 167.049 237.83 166.868 237.83 166.68Z" fill="#EE3A58" stroke="#EE3A58" stroke-width="0.87" stroke-miterlimit="10"/>
<path d="M234 190.61H303.11" stroke="#18293D" stroke-width="0.87" stroke-miterlimit="10"/>
<g opacity="0.5">
<path d="M238.67 97.73H232.28V104.12H238.67V97.73Z" fill="#3041B0"/>
<path d="M238.67 110.51H232.28V116.9H238.67V110.51Z" fill="#3041B0"/>
</g>
<path d="M243.78 101.56H287.88" stroke="white" stroke-width="1.28" stroke-miterlimit="10"/>
<path d="M243.78 114.99H287.88" stroke="white" stroke-width="1.28" stroke-miterlimit="10"/>
<g style="mix-blend-mode:multiply">
<path d="M36.28 444.72C49.1372 444.72 59.56 443.44 59.56 441.86C59.56 440.28 49.1372 439 36.28 439C23.4228 439 13 440.28 13 441.86C13 443.44 23.4228 444.72 36.28 444.72Z" fill="#ABC6FF"/>
</g>
<g style="mix-blend-mode:multiply">
<path d="M96.28 439.72C109.137 439.72 119.56 438.44 119.56 436.86C119.56 435.28 109.137 434 96.28 434C83.4228 434 73 435.28 73 436.86C73 438.44 83.4228 439.72 96.28 439.72Z" fill="#ABC6FF"/>
</g>
<path d="M143.86 194.68C143.86 194.68 120.66 230.16 114.36 225.68C114.36 225.68 104.22 220.51 107.85 199.68C107.85 197.68 107.85 196.25 107.8 195.93C107.8 195.93 105.8 177.45 102.39 173.19C101.907 172.097 101.613 170.931 101.52 169.74C111.84 167.15 115.98 189.15 118.82 201.15C118.94 201.69 138.48 186.45 138.48 186.45C138.48 186.45 148.8 172.8 149.48 173.58C150.48 174.71 146.48 180.8 146.48 180.8C146.68 181.244 147.036 181.6 147.48 181.8C147.87 181.967 148.211 182.231 148.471 182.567C148.73 182.903 148.898 183.3 148.96 183.72C149.22 184.72 150.26 185.37 150.44 185.98C150.62 186.59 146.07 193.08 143.86 194.68Z" fill="#FEB28C"/>
<path d="M130.03 191.1C124.24 195.57 118.9 201.52 118.82 201.19C115.98 189.19 111.82 167.19 101.52 169.78C101.613 170.971 101.907 172.137 102.39 173.23C105.77 177.49 107.8 195.97 107.8 195.97C107.87 196.29 107.86 197.69 107.85 199.72C104.22 220.55 114.36 225.72 114.36 225.72C119.18 229.12 133.69 211.32 140.36 201.72C137.83 198.78 132.48 194.08 130.03 191.1Z" fill="#EE3A58"/>
<path d="M138.81 186.37C138.81 186.37 140.9 180.46 141.76 180.64C142.62 180.82 146.46 182.46 146.37 183.94C146.28 185.42 142.98 184.2 142.98 184.2C142.98 184.2 143.59 187.5 141.98 187.94C140.37 188.38 138.81 186.37 138.81 186.37Z" fill="#FEB28C"/>
<path d="M143.94 183.94C143.94 183.94 143.85 185.42 145.07 185.68C145.099 185.885 145.17 186.081 145.28 186.256C145.39 186.432 145.535 186.582 145.707 186.697C145.879 186.812 146.073 186.89 146.277 186.925C146.481 186.96 146.69 186.951 146.89 186.9C146.89 186.9 146.46 187.59 147.42 187.77C147.42 187.77 143.33 192.2 143.94 183.94Z" fill="#F79988"/>
<path d="M143.16 181.06C144 181.33 144.8 181.67 145.61 182.06C146.034 182.223 146.44 182.43 146.82 182.68C147.058 182.845 147.239 183.079 147.34 183.35C147.385 183.514 147.384 183.687 147.338 183.851C147.293 184.015 147.203 184.163 147.08 184.28C146.292 184.842 145.319 185.082 144.36 184.95C144.2 184.932 144.039 184.932 143.88 184.95C143.88 184.86 143.88 185.17 143.88 185.37C143.88 185.81 143.95 186.24 143.96 186.68L143.71 185.4C143.71 185.2 143.54 184.96 143.71 184.75C143.88 184.54 144.15 184.67 144.36 184.66C145.227 184.735 146.094 184.505 146.81 184.01C146.886 183.943 146.943 183.856 146.973 183.759C147.003 183.662 147.005 183.558 146.98 183.46C146.908 183.26 146.775 183.089 146.6 182.97C146.236 182.733 145.855 182.522 145.46 182.34L143.14 181.14L143.16 181.06Z" fill="#EC7965"/>
<path d="M146.65 180.65C146.637 180.829 146.585 181.002 146.5 181.16C146.422 181.3 146.328 181.431 146.22 181.55C146.099 181.658 145.968 181.755 145.83 181.84C145.668 181.928 145.492 181.985 145.31 182.01C145.74 181.54 146.19 181.09 146.65 180.65Z" fill="#EC7965"/>
<path d="M148.41 182.84C148.215 183.268 147.959 183.665 147.65 184.02C147.345 184.381 147.011 184.715 146.65 185.02C146.268 185.305 145.859 185.553 145.43 185.76C145.186 185.87 144.917 185.915 144.65 185.89C144.519 185.875 144.394 185.827 144.288 185.75C144.181 185.672 144.096 185.569 144.04 185.45C144.201 185.607 144.413 185.701 144.637 185.713C144.861 185.726 145.083 185.658 145.26 185.52C145.65 185.284 146.024 185.024 146.38 184.74C147.111 184.192 147.781 183.569 148.38 182.88L148.41 182.84Z" fill="#EC7965"/>
<path d="M145.02 185.67C145.24 186.15 145.47 186.67 145.83 186.8C146.031 186.848 146.241 186.842 146.439 186.784C146.637 186.727 146.816 186.618 146.96 186.47C147.36 186.16 147.74 185.826 148.1 185.47C148.49 185.12 148.88 184.76 149.31 184.47C148.99 184.89 148.65 185.29 148.31 185.68C147.971 186.087 147.593 186.459 147.18 186.79C146.979 186.973 146.731 187.095 146.464 187.143C146.197 187.191 145.922 187.162 145.67 187.06C145.464 186.891 145.295 186.681 145.175 186.444C145.054 186.206 144.985 185.946 144.97 185.68L145.02 185.67Z" fill="#EC7965"/>
<path d="M146.83 186.64C146.944 186.929 147.084 187.207 147.25 187.47C147.315 187.581 147.4 187.679 147.5 187.76C147.585 187.781 147.675 187.781 147.76 187.76C148.04 187.749 148.318 187.709 148.59 187.64C148.901 187.647 149.209 187.582 149.49 187.45C149.279 187.703 148.985 187.873 148.66 187.93C148.344 188.062 148.002 188.121 147.66 188.1C147.491 188.1 147.328 188.039 147.2 187.93C147.086 187.809 146.997 187.666 146.94 187.51C146.807 187.21 146.732 186.888 146.72 186.56L146.83 186.64Z" fill="#EC7965"/>
<path d="M95.8083 128.634C92.6096 126.524 87.743 126.238 86.9509 126.104C77.4896 124.507 71.7938 141.782 71.4593 147.018C70.8414 156.666 66.7786 158.137 61.0595 164.178C49.5935 176.296 52.9571 190.374 59.2267 195.604C62.9875 198.745 69.6195 195.604 69.6195 195.604C69.7124 195.686 87.7523 182.935 96.6445 176.783C109.976 174.402 103.962 134.013 95.8083 128.634Z" fill="#18004C"/>
<path d="M81.3801 145.27C81.3828 145.339 81.3713 145.409 81.3463 145.474C81.3212 145.539 81.2832 145.598 81.2345 145.647C81.1858 145.697 81.1275 145.736 81.0631 145.762C80.9987 145.789 80.9296 145.801 80.8601 145.8C79.6201 145.8 76.7601 145.54 76.3601 148.8C75.9601 152.06 79.0701 153.92 80.9501 154.02C81.4901 154.02 82.7401 154.16 83.1001 154.56C84.2301 155.79 84.7601 158.47 85.6301 161.81C86.2415 163.781 86.1935 165.898 85.4933 167.84C84.7931 169.782 83.479 171.442 81.7501 172.57C81.7501 172.57 101.09 182.08 100.91 172.57C100.91 172.57 99.3801 155.03 99.4701 154.94C100.98 153.43 106.85 152.78 103.16 140.28C99.7501 128.7 91.2501 129.52 89.0901 129.9C87.2701 130.18 80.9401 130.57 81.3801 145.27Z" fill="#FEB28C"/>
<path d="M77.76 149.71C77.76 149.71 79.71 145.61 82.18 151.11L77.76 149.71Z" fill="#EC7965"/>
<path d="M92.1301 145.28C92.7045 145.266 93.2701 145.423 93.7555 145.731C94.241 146.038 94.6246 146.482 94.8579 147.007C95.0912 147.532 95.1639 148.115 95.0667 148.681C94.9696 149.248 94.7069 149.772 94.3119 150.19C93.9169 150.607 93.4072 150.898 92.847 151.026C92.2869 151.154 91.7014 151.113 91.1643 150.909C90.6272 150.705 90.1626 150.346 89.8291 149.878C89.4956 149.41 89.308 148.854 89.2901 148.28C89.2767 147.896 89.3399 147.513 89.4759 147.153C89.6119 146.794 89.8181 146.465 90.0823 146.186C90.3466 145.907 90.6637 145.683 91.0153 145.527C91.3668 145.372 91.7458 145.288 92.1301 145.28Z" fill="#F79988"/>
<path d="M104.24 146.36C103.659 146.256 103.123 145.977 102.703 145.561C102.284 145.145 102.001 144.611 101.893 144.03C101.784 143.45 101.855 142.85 102.096 142.31C102.336 141.771 102.735 141.317 103.24 141.01C103.24 141.01 104.48 144.23 104.24 146.36Z" fill="#F79988"/>
<path d="M101.8 144.87L97.3701 147.07C97.3701 147.07 99.5301 148.65 100.7 147.79C101.87 146.93 101.8 144.87 101.8 144.87Z" fill="white"/>
<path d="M98.3999 141.65L99.0999 144.81L100.64 144.13C100.705 144.102 100.762 144.057 100.805 144C100.848 143.943 100.875 143.876 100.885 143.806C100.894 143.735 100.884 143.663 100.857 143.597C100.83 143.531 100.786 143.474 100.73 143.43L98.3999 141.65Z" fill="#EC7965"/>
<path d="M92.72 140.45C92.33 140.99 92.56 139.12 93.19 138.68C93.4607 138.47 93.8027 138.375 94.1429 138.414C94.483 138.453 94.7943 138.624 95.01 138.89C94.087 139.125 93.2762 139.677 92.72 140.45Z" fill="#1E274D"/>
<path d="M101.07 137.3C101.71 137.48 100.36 136.16 99.6001 136.22C99.2587 136.223 98.9321 136.359 98.6908 136.601C98.4494 136.842 98.3127 137.169 98.3101 137.51C99.1775 137.12 100.154 137.046 101.07 137.3Z" fill="#1E274D"/>
<path d="M95.27 142.79C95.49 143.32 95.87 143.66 96.13 143.56C96.39 143.46 96.42 142.94 96.2 142.41C95.98 141.88 95.61 141.54 95.35 141.64C95.09 141.74 95.06 142.26 95.27 142.79Z" fill="#1E274D"/>
<path d="M99.38 140.84C99.58 141.34 99.95 141.67 100.19 141.57C100.43 141.47 100.47 140.98 100.27 140.48C100.07 139.98 99.7 139.64 99.45 139.74C99.2 139.84 99.17 140.33 99.38 140.84Z" fill="#1E274D"/>
<path d="M99.4801 154.89C96.7417 155.428 93.9606 155.719 91.1701 155.76C88.3801 155.58 100.1 161.84 99.4801 154.89Z" fill="#EC7965"/>
<path d="M84.96 154.05C84.96 154.544 84.8133 155.028 84.5386 155.439C84.2639 155.85 83.8735 156.17 83.4167 156.36C82.9599 156.549 82.4572 156.598 81.9722 156.502C81.4873 156.405 81.0418 156.167 80.6922 155.818C80.3426 155.468 80.1045 155.023 80.008 154.538C79.9115 154.053 79.9611 153.55 80.1503 153.093C80.3395 152.636 80.6599 152.246 81.071 151.971C81.4822 151.697 81.9655 151.55 82.46 151.55C82.7886 151.549 83.1143 151.612 83.4182 151.738C83.7222 151.863 83.9983 152.047 84.2307 152.279C84.4631 152.512 84.6472 152.788 84.7724 153.092C84.8975 153.396 84.9613 153.721 84.96 154.05Z" fill="#EE3A58"/>
<path d="M84.96 159.04C84.96 159.534 84.8133 160.018 84.5386 160.429C84.2639 160.84 83.8735 161.16 83.4167 161.35C82.9599 161.539 82.4572 161.588 81.9722 161.492C81.4873 161.395 81.0418 161.157 80.6922 160.808C80.3426 160.458 80.1045 160.013 80.008 159.528C79.9115 159.043 79.9611 158.54 80.1503 158.083C80.3395 157.626 80.6599 157.236 81.071 156.961C81.4822 156.687 81.9655 156.54 82.46 156.54C82.7886 156.539 83.1143 156.602 83.4182 156.728C83.7222 156.853 83.9983 157.037 84.2307 157.269C84.4631 157.502 84.6472 157.778 84.7724 158.082C84.8975 158.386 84.9613 158.711 84.96 159.04Z" fill="#EE3A58"/>
<path d="M88.13 408.25L86.99 425.17C86.99 425.17 90.42 435.24 93.6 431.34C95.4197 429.054 97.5504 427.035 99.93 425.34L100.98 409.56L88.13 408.25Z" fill="#F5826B"/>
<path d="M93.1801 410.56L93.7301 431.2C93.7301 431.2 83.6601 432.72 87.4001 425.97L87.4601 406.97L93.1801 410.56Z" fill="#FEB28C"/>
<path d="M50.07 410.37L45.35 425.51C45.35 425.51 41.75 428.66 40.46 428.58C38.1 428.43 36.86 424.36 36.86 424.36L36.47 410.36L50.07 410.37Z" fill="#F5826B"/>
<path d="M43.2701 406.32L39.9601 431.37C39.9601 431.37 33.1901 433.16 36.9601 426.42L36.1301 407.15L43.2701 406.32Z" fill="#FEB28C"/>
<path d="M100.98 425.3L113.69 435.61C114.34 436.09 113.88 436.9 112.95 436.91L94.1901 437.06C93.9927 437.075 93.795 437.035 93.6187 436.945C93.4423 436.855 93.2941 436.718 93.1901 436.55L91.7701 433.65C91.3601 432.81 90.5501 432.75 90.6301 433.65L89.9301 436.45C89.9301 436.9 85.4801 436.78 85.4401 436.37C85.3346 432.058 85.5754 427.744 86.1601 423.47C86.217 423.289 86.328 423.129 86.4782 423.013C86.6284 422.897 86.8105 422.83 87.0001 422.82C87.1778 422.795 87.3588 422.808 87.5312 422.858C87.7036 422.908 87.8634 422.994 88.0001 423.11C89.2601 424.33 93.3101 428.02 95.4701 427.27C96.8534 426.82 98.1663 426.177 99.3701 425.36C99.5957 425.177 99.8747 425.072 100.165 425.061C100.456 425.05 100.742 425.134 100.98 425.3Z" fill="#EE3A58"/>
<path d="M36.68 423.84L29.48 435.93C29.2991 436.216 29.1823 436.537 29.1377 436.873C29.093 437.208 29.1216 437.549 29.2214 437.872C29.3212 438.195 29.4898 438.493 29.7158 438.745C29.9417 438.996 30.2195 439.196 30.53 439.33C32.78 440.68 34.63 443.33 36.05 443.4C38.61 443.47 42.6 440.77 44.93 439.75C46.49 439.07 47.71 438.07 47.52 436.75L45.72 424.62C45.72 424.47 45.44 424.42 45.31 424.54L42.54 427.04C41.64 427.86 39.18 427.75 38.54 426.77C38.1 426.07 37.08 423.77 37.08 423.77C37.0495 423.747 37.0147 423.731 36.9777 423.722C36.9407 423.714 36.9024 423.713 36.865 423.719C36.8275 423.726 36.7918 423.74 36.76 423.761C36.7283 423.781 36.701 423.808 36.68 423.84Z" fill="#EE3A58"/>
<path d="M76.3199 221.03C71.7899 229.96 66.7899 238.95 63.1899 251.63C59.1899 265.8 36.6399 387.94 34.9199 413.91C39.4199 414.99 49.0399 415.06 51.9199 414.91C60.9199 388.99 84.9199 302.37 88.8299 286.04C89.4299 283.53 93.3099 284.04 93.0099 286.65C90.7999 305.29 85.8399 382.65 84.1799 412.92C86.5399 414.12 102.07 413.59 104.8 413.25C107.8 381.25 130.37 260.25 106.63 221.04C95.7299 219.53 93.1199 220.53 76.3199 221.03Z" fill="#B1CBFF"/>
<path d="M105.02 222.37C111.92 241.759 115.478 262.18 115.54 282.76C115.54 316.54 101.1 413.24 101.1 413.24" stroke="white" stroke-width="0.42" stroke-miterlimit="10"/>
<path d="M38.5801 413.57L77.9801 221.69" stroke="white" stroke-width="0.42" stroke-miterlimit="10"/>
<g style="mix-blend-mode:multiply" opacity="0.21">
<path d="M107.48 222.63L60.95 259.72C60.95 259.72 66.07 236.45 76.4799 221.36L107.48 222.63Z" fill="#1E274D"/>
</g>
<path d="M100.77 168.78C101.6 169.78 113.45 189.68 113.07 197.2C112.69 204.72 107.01 221.2 107.42 222.36C107.42 222.36 107.75 224.19 75.8299 222.25C74.6999 209.53 70.9299 182.2 74.2699 172.81C78.3473 171.296 82.2204 169.281 85.7999 166.81C85.7999 166.81 101.54 176.36 100.77 168.78Z" fill="#EE3A58"/>
<g style="mix-blend-mode:multiply">
<path d="M76.4801 173.13C74.8885 174.613 73.4079 176.21 72.0501 177.91C68.7001 187.3 74.6901 209.53 75.8201 222.25C90.2601 223.13 98.0801 223.25 102.34 223.09C93.3468 206.663 84.7268 190.01 76.4801 173.13Z" fill="#F190A0"/>
</g>
<path d="M123.48 228.86L92.2099 267.56L67.1499 247.31L86.2099 227.2L86.1099 226.02C86.0121 224.746 86.4057 223.483 87.2099 222.49L94.2099 213.88C95.3399 212.485 96.9776 211.596 98.7628 211.409C100.548 211.221 102.335 211.75 103.73 212.88L123.48 228.86Z" fill="white"/>
<path d="M122.81 225.86L91.55 264.56L66.48 244.32L85.53 224.2L85.44 223.02C85.3393 221.747 85.7293 220.484 86.53 219.49L93.48 210.89C94.6118 209.495 96.2512 208.605 98.0381 208.418C99.8249 208.23 101.613 208.76 103.01 209.89L122.81 225.86Z" fill="#423CCB"/>
<path d="M71.39 212.94C76.66 219.74 96.99 238.63 98.45 239.6C100.87 241.004 103.511 241.984 106.26 242.5C107.196 242.792 108.008 243.387 108.57 244.19C108.914 244.539 109.289 244.857 109.69 245.14C109.867 245.298 109.997 245.501 110.066 245.729C110.134 245.956 110.138 246.198 110.076 246.427C110.015 246.656 109.891 246.864 109.719 247.027C109.547 247.19 109.332 247.302 109.1 247.35C107.99 246.59 105.5 244.84 106 245.28C108.81 247.79 112.11 251.28 110.84 252.13C110.22 252.54 105.57 257.08 101.04 255.31C100.17 254.97 79.59 244.55 55.71 224.86C54.4318 223.802 53.468 222.414 52.9232 220.847C52.3785 219.279 52.2736 217.593 52.62 215.97C55.62 201.97 70.73 167.71 79.37 173.03C87.48 178.03 71.39 212.94 71.39 212.94Z" fill="#FEB28C"/>
<path d="M93.35 235.07C86.58 228.81 75.15 217.8 71.35 212.94C71.35 212.94 90.35 180.11 79.35 173.03C69.15 166.49 54.49 201.74 51.53 215.71C50.83 219.02 52.58 223.21 55.19 225.35C66.67 234.82 77.32 242.88 85.45 247.97C87.91 244.08 90.92 238.96 93.35 235.07Z" fill="#EE3A58"/>
<path d="M339.72 416.45C343.62 410.32 349.88 406.95 357.72 406.95H371.48C375.016 406.957 378.498 407.815 381.631 409.453C384.764 411.091 387.457 413.461 389.48 416.36L339.72 416.45Z" fill="#03163C"/>
<path d="M335.7 435.45V428.92C335.7 423.085 338.018 417.489 342.144 413.364C346.269 409.238 351.865 406.92 357.7 406.92H371.48C377.315 406.92 382.91 409.238 387.036 413.364C391.162 417.489 393.48 423.085 393.48 428.92V435.45" stroke="#0D004F" stroke-width="3.3" stroke-miterlimit="10"/>
<path d="M340.133 433.283C342.987 430.428 342.987 425.8 340.133 422.945C337.278 420.09 332.649 420.09 329.795 422.945C326.94 425.8 326.94 430.428 329.795 433.283C332.649 436.138 337.278 436.138 340.133 433.283Z" fill="#03163C"/>
<path d="M334.97 431.63C336.908 431.63 338.48 430.058 338.48 428.12C338.48 426.181 336.908 424.61 334.97 424.61C333.031 424.61 331.46 426.181 331.46 428.12C331.46 430.058 333.031 431.63 334.97 431.63Z" fill="white"/>
<path d="M364.94 351.36V406.19" stroke="#03163C" stroke-width="7.69" stroke-miterlimit="10"/>
<path d="M374.48 406.92H355.48C355.483 405.176 356.177 403.504 357.41 402.27C358.644 401.037 360.316 400.343 362.06 400.34H367.91C369.654 400.343 371.326 401.037 372.56 402.27C373.793 403.504 374.487 405.176 374.49 406.92H374.48Z" fill="#0D004F"/>
<path d="M393.911 435.299C397.896 434.654 400.604 430.9 399.958 426.914C399.313 422.929 395.559 420.222 391.574 420.867C387.588 421.513 384.881 425.267 385.526 429.252C386.172 433.237 389.926 435.945 393.911 435.299Z" fill="#03163C"/>
<path d="M396.59 428.12C396.59 427.425 396.384 426.746 395.998 426.169C395.611 425.591 395.063 425.142 394.421 424.876C393.779 424.611 393.073 424.542 392.391 424.678C391.71 424.814 391.085 425.15 390.594 425.642C390.104 426.133 389.77 426.76 389.636 427.441C389.502 428.123 389.573 428.829 389.84 429.47C390.107 430.111 390.559 430.659 391.137 431.043C391.716 431.428 392.395 431.632 393.09 431.63C394.019 431.627 394.909 431.256 395.565 430.598C396.221 429.94 396.59 429.049 396.59 428.12Z" fill="white"/>
<path d="M403.56 232.16L368.08 230.84L339.48 338.37L327.37 342.37C323.37 342.37 331.69 347.6 331.69 351.56H337.48H399.81C402.229 351.562 404.573 350.722 406.44 349.184C408.307 347.645 409.58 345.505 410.04 343.13L426.04 260.76C426.716 257.37 426.65 253.874 425.846 250.512C425.042 247.15 423.52 244.003 421.384 241.285C419.248 238.567 416.548 236.345 413.472 234.769C410.395 233.194 407.013 232.304 403.56 232.16Z" fill="#0D004F"/>
<path d="M401.98 344.08L338.38 341.89L350.84 244.29C351.391 240.473 353.336 236.995 356.3 234.528C359.264 232.061 363.036 230.779 366.89 230.93L398.72 232.16C402.176 232.311 405.557 233.209 408.633 234.792C411.708 236.375 414.404 238.605 416.535 241.33C418.666 244.055 420.181 247.209 420.976 250.575C421.771 253.941 421.827 257.44 421.14 260.83L401.98 344.08Z" fill="#C2D6FF"/>
<path d="M406.17 221.95L403.56 232.16" stroke="#0D004F" stroke-width="3.01" stroke-miterlimit="10"/>
<path d="M383.14 221.95L380.53 232.16" stroke="#0D004F" stroke-width="3.01" stroke-miterlimit="10"/>
<path d="M413.32 223.63H368.12L377.8 195.63H418.8C419.602 195.625 420.394 195.812 421.108 196.177C421.823 196.542 422.439 197.073 422.904 197.727C423.37 198.38 423.672 199.135 423.784 199.929C423.897 200.724 423.816 201.533 423.55 202.29L417.1 220.96C416.824 221.742 416.313 222.419 415.635 222.897C414.958 223.375 414.149 223.632 413.32 223.63Z" fill="#0D004F"/>
<path d="M408.32 223.29H363.11L372.79 195.29H413.79C414.591 195.286 415.382 195.475 416.095 195.841C416.808 196.206 417.422 196.738 417.887 197.391C418.352 198.044 418.653 198.798 418.765 199.592C418.876 200.385 418.796 201.194 418.53 201.95L412.08 220.63C411.804 221.407 411.294 222.079 410.621 222.555C409.948 223.032 409.144 223.288 408.32 223.29Z" fill="white" stroke="white" stroke-miterlimit="10"/>
<g style="mix-blend-mode:multiply">
<path d="M262.05 438.84C284.456 438.84 302.62 438.097 302.62 437.18C302.62 436.263 284.456 435.52 262.05 435.52C239.644 435.52 221.48 436.263 221.48 437.18C221.48 438.097 239.644 438.84 262.05 438.84Z" fill="#ABC6FF"/>
</g>
<path d="M271.09 421.33L276.01 409.58H292.64L290.73 421.83C285.82 427.46 278.85 432.28 273.73 426.83L271.09 421.33Z" fill="#FFAF99"/>
<path d="M291.23 419.91C291.23 419.91 293.62 437.83 291.65 437.99L245.25 438.36C245.25 438.36 248.49 430.13 257.42 428.5C269.03 426.38 271.36 420.14 271.36 420.14C271.36 420.14 274.6 424.14 275.89 425.34C276.644 426.02 277.526 426.545 278.483 426.885C279.441 427.224 280.456 427.371 281.47 427.317C282.485 427.263 283.479 427.009 284.395 426.571C285.311 426.132 286.132 425.517 286.81 424.76L291.23 419.91Z" fill="#B1CBFF"/>
<path d="M391.07 311.69C391.094 316.002 390.267 320.276 388.639 324.268C387.01 328.26 384.611 331.893 381.577 334.957C378.544 338.022 374.937 340.459 370.962 342.129C366.987 343.799 362.722 344.669 358.41 344.69H322.84C320.77 344.69 319.58 347.08 316.92 352.41C316.92 352.41 292.72 415.67 292.31 415.67C292.31 415.67 271.48 416 271.38 415.77L286.23 333.96C286.59 331.901 287.226 329.9 288.12 328.01C294.37 314.94 304.89 313.63 313.26 313.47L391.07 311.69Z" fill="#B1CBFF"/>
<path d="M370.42 312.64C370.42 312.64 373.64 332.57 354.99 331.93C344.63 331.57 333.05 331.15 320.24 331.44C311.14 331.64 305.94 338.09 302.06 349.8L281.5 415.8" stroke="white" stroke-width="0.39" stroke-miterlimit="10"/>
<path d="M311.55 421.32L312.48 409.35L330.6 410.99L331.19 421.82L322.04 432.3L311.55 421.32Z" fill="#FFAF99"/>
<path d="M331.69 419.91C331.69 419.91 334.07 437.83 332.11 437.99L285.71 438.36C285.71 438.36 288.93 430.02 297.87 428.5C311.38 426.2 310.26 419.95 310.26 419.95L317.19 426.08C318.497 427.238 320.207 427.836 321.95 427.745C323.694 427.653 325.332 426.879 326.51 425.59L331.69 419.91Z" fill="#B1CBFF"/>
<path d="M406.59 311.69C406.614 316.002 405.788 320.276 404.159 324.268C402.53 328.26 400.131 331.893 397.098 334.957C394.064 338.022 390.457 340.459 386.482 342.129C382.507 343.799 378.242 344.669 373.93 344.69H338.36C337.874 344.693 337.396 344.808 336.961 345.025C336.527 345.242 336.148 345.556 335.854 345.942C335.559 346.328 335.357 346.776 335.263 347.253C335.169 347.729 335.185 348.221 335.31 348.69L332.42 414.64C332.446 414.734 332.45 414.833 332.432 414.928C332.414 415.024 332.373 415.114 332.314 415.192C332.255 415.27 332.179 415.332 332.091 415.375C332.004 415.418 331.907 415.44 331.81 415.44H319.48C319.23 415.44 311.97 415.99 311.87 415.76L302.21 331.45C301.95 319.45 305.61 314.84 313.52 313.45L406.59 311.69Z" fill="#B1CBFF"/>
<path d="M385.94 312.64C385.94 312.64 389.16 332.57 370.51 331.93C360.15 331.57 343.43 331.81 330.62 332.09C328.496 332.138 326.412 332.673 324.527 333.652C322.642 334.632 321.007 336.031 319.747 337.741C318.486 339.451 317.635 341.427 317.258 343.518C316.88 345.608 316.987 347.757 317.57 349.8L322.23 414.92" stroke="white" stroke-width="0.39" stroke-miterlimit="10"/>
<path d="M283.356 244.262L272 227.757L280.823 219.066C280.823 219.066 276.738 208.107 277.17 206.343C278.104 202.375 298.295 234.179 298.295 234.179L313 247.901L295.377 264L283.356 244.262Z" fill="#FFAF99"/>
<path d="M289.279 221.032L284.104 223.001C283.41 223.192 282.79 223.518 282.304 223.949C282.106 224.177 282 224.446 282 224.722C282 224.997 282.106 225.266 282.304 225.495C282.746 225.979 283.409 226.315 284.157 226.433C285.027 226.606 285.912 226.734 286.804 226.814C288.682 227.01 290.58 227.051 292.469 226.938C293.17 226.886 293.184 226.031 292.469 226.072C290.897 226.185 289.315 226.185 287.744 226.072C286.948 226.01 286.158 225.917 285.375 225.794C284.686 225.754 284.024 225.573 283.455 225.268C282.198 224.361 284.779 223.722 285.52 223.444L289.822 221.805C290.47 221.558 289.901 220.774 289.279 221.063V221.032Z" fill="#EA6F46"/>
<path d="M280.299 219.622C281.32 220.97 282.207 222.413 282.949 223.932C283.007 224.025 283.098 224.092 283.204 224.12C283.31 224.148 283.423 224.134 283.519 224.082C283.614 224.026 283.683 223.935 283.711 223.828C283.739 223.721 283.724 223.608 283.669 223.512C282.927 221.993 282.04 220.55 281.019 219.202C280.961 219.109 280.87 219.042 280.764 219.014C280.658 218.986 280.545 219 280.449 219.052C280.401 219.079 280.359 219.115 280.325 219.159C280.292 219.202 280.267 219.252 280.253 219.305C280.239 219.359 280.236 219.414 280.244 219.468C280.252 219.523 280.27 219.575 280.299 219.622Z" fill="#EA6F46"/>
<path d="M284.075 226.662C284.088 226.785 284.062 226.909 283.998 227.016C283.935 227.122 283.839 227.205 283.725 227.252C283.593 227.313 283.45 227.344 283.305 227.344C283.16 227.344 283.016 227.313 282.885 227.252C282.242 226.92 281.679 226.453 281.235 225.882C280.234 224.787 279.137 223.339 278.5 222C278.27 221.52 277.55 221.94 277.78 222.42C278.585 224.105 279.954 225.842 281.305 227.132C281.589 227.473 281.95 227.742 282.359 227.916C282.768 228.089 283.212 228.164 283.655 228.132C284.044 228.068 284.393 227.852 284.624 227.532C284.854 227.211 284.948 226.812 284.885 226.422C284.765 225.902 283.965 226.122 284.075 226.642V226.662Z" fill="#EA6F46"/>
<path d="M282.039 227.822C281.944 228.713 281.635 229.567 281.139 230.312C280.629 230.982 279.479 229.832 279.139 229.432C278.564 228.767 278.033 228.066 277.549 227.332L275.779 224.812C275.479 224.372 274.779 224.812 275.069 225.232L277.199 228.232C277.733 229.082 278.379 229.855 279.119 230.532C279.819 231.102 280.929 231.772 281.699 230.962C282.021 230.581 282.268 230.144 282.429 229.672C282.649 229.144 282.8 228.589 282.879 228.022C282.959 227.502 282.159 227.272 282.079 227.802L282.039 227.822Z" fill="#EA6F46"/>
<path d="M279.085 230.334C279.047 230.713 278.897 231.072 278.656 231.362C278.415 231.653 278.094 231.863 277.735 231.964C277.375 232.065 276.995 232.053 276.642 231.929C276.29 231.805 275.982 231.575 275.759 231.27C275.675 231.188 275.563 231.142 275.447 231.142C275.331 231.142 275.219 231.188 275.135 231.27C275.092 231.312 275.058 231.362 275.035 231.418C275.012 231.474 275 231.534 275 231.594C275 231.655 275.012 231.715 275.035 231.771C275.058 231.826 275.092 231.877 275.135 231.919C275.464 232.354 275.912 232.68 276.422 232.855C276.932 233.03 277.481 233.047 278 232.903C278.519 232.76 278.985 232.462 279.339 232.048C279.693 231.634 279.92 231.122 279.989 230.576C280.014 230.46 279.996 230.338 279.938 230.235C279.88 230.131 279.788 230.053 279.677 230.015C279.563 229.985 279.442 230.001 279.339 230.06C279.237 230.12 279.161 230.218 279.128 230.334H279.085Z" fill="#EA6F46"/>
<path d="M342.07 310.19C342.07 310.19 354.16 226.88 357.24 221.69C357.24 221.69 350.09 217.9 340.56 237.95C331.03 258 329.68 263.8 329.68 263.8L308.68 242.26L291.54 260.26L329.67 309.83L340.86 311.03" fill="#FFC700"/>
<path d="M389.26 216.34C389.26 216.34 411.72 223.5 414.55 245.53C417.38 267.56 404.48 324.05 404.48 324.05C404.48 324.05 390.75 318.23 385.09 316.67C378.367 314.892 371.433 314.044 364.48 314.15L339.78 313.71L348.48 239.02C349.79 233.4 350.48 225.33 355.61 222.1L364.25 216.88L381.35 212.48L389.26 216.34Z" fill="#FFC700"/>
<g style="mix-blend-mode:multiply">
<path d="M339.01 309.45C345.53 296.45 397.01 225.19 396.08 219.54C402.94 223.54 412.75 231.54 414.55 245.54C417.39 267.54 404.48 324.06 404.48 324.06C404.48 324.06 390.75 318.24 385.09 316.68C378.368 314.899 371.433 314.047 364.48 314.15L336.48 313.93C335.8 313.28 338.69 310.07 339.01 309.45Z" fill="#FFE898"/>
</g>
<path d="M365.41 292.05L345.41 297.76C345.41 297.76 326.24 303.45 320.93 312.45L366.64 311.23L365.41 292.05Z" fill="#FFAF99"/>
<path d="M387.85 217.78C392.94 214.55 412.34 225.33 416.54 246.08C420.81 268.33 413.27 312.53 405.99 315.2C398.71 317.87 367.48 314.45 367.48 314.45C367.48 314.45 366 294.77 365.03 288.74L389.93 287.93C389.93 287.93 384.24 257.56 387.85 217.78Z" fill="#FFC700"/>
<path d="M378.73 196.09L382.01 211.66L376.01 218.46C366.7 228.51 365.4 221.86 363.66 221.02L364.85 202.75L373.53 199.29L378.73 196.09Z" fill="#FFAF99"/>
<path d="M373.54 199.29L364.86 204.09C364.86 204.09 363.93 212.48 366.46 212.75C368.58 212.97 375.88 206.18 375.13 201.02" fill="#DE7454"/>
<path d="M378.79 198.19C378.79 198.19 379.96 191.73 378.49 193.54L374.6 179.06C373.15 180.705 371.531 182.193 369.77 183.5C367.39 185.15 361.77 184.23 360.32 183.58C358.87 182.93 359.15 176.3 359.15 176.3C359.15 176.3 349.48 170.98 356.48 163.83C362.96 159.01 379.26 169.35 379.26 169.35C379.26 169.35 384.89 167.93 385.33 175.06C385.33 175.06 390.81 173.73 382.25 193.68" fill="#18004C"/>
<path d="M358.98 175.96C356.07 197.82 356.88 204.32 358.92 206.01C361.87 208.45 367.2 207.01 369.8 206.01C374.07 204.39 377.08 199.86 378.01 198.52C378.47 197.85 383.85 198.96 383.12 193.85C382.59 190.08 380.58 191.29 379.57 192.18C379.502 192.241 379.419 192.284 379.33 192.305C379.241 192.326 379.148 192.325 379.06 192.301C378.972 192.277 378.891 192.232 378.824 192.169C378.758 192.106 378.708 192.027 378.68 191.94C377.92 189.72 376.46 180.78 374.68 178.62C370.24 173.28 366.68 178.32 363.59 178.82C359.19 179.54 360.32 177.04 359.19 176.14L358.98 175.96Z" fill="#FFAF99"/>
<path d="M357.61 194.56C357.61 194.56 359.26 195.45 363.38 195.25C363.38 195.25 361.04 198.08 359.45 197.44C357.86 196.8 357.61 194.56 357.61 194.56Z" fill="white"/>
<path d="M382.33 193.45L379.33 195.45C379.33 195.45 380.66 190.35 382.33 193.45Z" fill="#EA6F46"/>
<path d="M361.98 189.7C361.98 190.31 362.17 190.81 362.48 190.83C362.79 190.85 363.05 190.36 363.08 189.75C363.11 189.14 362.88 188.63 362.58 188.62C362.28 188.61 362 189.09 361.98 189.7Z" fill="#001C39"/>
<path d="M358.4 189C358.4 189.61 358.6 190.12 358.91 190.13C359.22 190.14 359.48 189.66 359.51 189.05C359.54 188.44 359.31 187.93 359.01 187.92C358.71 187.91 358.48 188.39 358.4 189Z" fill="#001C39"/>
<path d="M367.32 186.24C368.12 186.84 366.95 184.24 365.85 183.93C365.368 183.761 364.839 183.782 364.372 183.99C363.905 184.199 363.536 184.578 363.34 185.05C364.765 184.97 366.173 185.391 367.32 186.24Z" fill="#001C39"/>
<path d="M357.92 184.51C358.59 184.453 359.265 184.504 359.92 184.66C359.839 184.19 359.593 183.765 359.226 183.461C358.86 183.156 358.396 182.993 357.92 183" fill="#001C39"/>
<path d="M360.1 189.04L358.21 193.65C358.202 193.667 358.198 193.685 358.198 193.704C358.199 193.723 358.203 193.741 358.212 193.758C358.221 193.774 358.233 193.788 358.249 193.799C358.264 193.81 358.281 193.817 358.3 193.82L360.3 194.05C360.316 194.051 360.333 194.049 360.349 194.044C360.365 194.038 360.379 194.03 360.391 194.019C360.403 194.007 360.413 193.994 360.42 193.978C360.426 193.963 360.43 193.947 360.43 193.93L360.34 189.09C360.346 189.058 360.34 189.025 360.322 188.998C360.305 188.971 360.277 188.952 360.245 188.945C360.213 188.938 360.18 188.945 360.153 188.962C360.125 188.98 360.106 189.008 360.1 189.04Z" fill="#EA6F46"/>
<path d="M311.91 311.33H357.19V306.02H311.91V311.33Z" fill="#000307"/>
<path d="M357.19 306.02H327.61L329.93 311.33H357.19V306.02Z" fill="#3041B0"/>
<path d="M94.6999 129.529C94.6999 129.529 90.3253 142.418 84.6613 146.509C78.9974 150.599 75.5754 149.934 75.5754 149.934C76.716 146.353 77.1114 142.559 76.7372 138.788C76.6387 137.907 76.7744 137.02 77.1304 136.219C77.4864 135.417 78.0497 134.731 78.7619 134.231C82.8586 131.387 90.9146 126.529 94.6999 129.529Z" fill="#18004C"/>
<path d="M91.5753 129.917C91.5753 129.917 95.259 130.444 97.0878 131.517C98.8504 132.547 101.708 136.01 102.25 137.823C102.25 137.823 100.696 128.77 96.4481 126.951C91.9423 125.021 91.5753 129.917 91.5753 129.917Z" fill="#18004C"/>
<path d="M255.31 311.33H326.68L309.45 262.11H238.08L255.31 311.33Z" fill="white"/>
<path d="M278.19 288.11C278.19 287.224 278.453 286.358 278.945 285.621C279.437 284.884 280.137 284.31 280.956 283.971C281.774 283.632 282.675 283.543 283.544 283.716C284.413 283.889 285.211 284.316 285.838 284.942C286.464 285.569 286.891 286.367 287.064 287.236C287.237 288.105 287.148 289.006 286.809 289.824C286.47 290.643 285.896 291.343 285.159 291.835C284.422 292.327 283.556 292.59 282.67 292.59C281.482 292.59 280.342 292.118 279.502 291.278C278.662 290.438 278.19 289.298 278.19 288.11Z" fill="#000307"/>
<path d="M187.56 447.45C186.644 447.437 185.77 447.082 185.122 446.461C184.473 445.84 184.102 445 184.085 444.12L198.399 327.12H214.085L191.034 444.12C191.015 444.999 190.643 445.837 189.995 446.458C189.347 447.079 188.474 447.435 187.56 447.45Z" fill="white"/>
<path d="M201.148 335.2C202.986 332.52 204.858 329.7 206.8 327H197.721L196.48 342.21C198.006 339.85 199.566 337.5 201.148 335.2Z" fill="#1B1687"/>
<path d="M454.007 447.33C454.922 447.317 455.796 446.962 456.444 446.341C457.092 445.72 457.464 444.88 457.48 444L443.171 327H427.48L450.534 444C450.55 444.88 450.921 445.72 451.569 446.341C452.218 446.962 453.092 447.317 454.007 447.33Z" fill="white"/>
<path d="M444.984 341.503L443.221 326.839L433.206 327.223C437.254 331.785 441.18 336.545 444.984 341.503Z" fill="#1B1687"/>
<path d="M453.789 328.74H185.958C185.044 328.727 184.171 328.194 183.528 327.258C182.885 326.322 182.525 325.058 182.525 323.74C182.534 322.431 182.899 321.18 183.54 320.254C184.182 319.329 185.05 318.803 185.958 318.79H453.789C454.697 318.803 455.565 319.329 456.207 320.254C456.848 321.18 457.213 322.431 457.222 323.74C457.222 325.058 456.861 326.322 456.219 327.258C455.576 328.194 454.703 328.727 453.789 328.74Z" fill="white"/>
<path d="M463.79 311.81H175.95C173.912 311.81 172.26 314.192 172.26 317.13C172.26 320.068 173.912 322.45 175.95 322.45H463.79C465.828 322.45 467.48 320.068 467.48 317.13C467.48 314.192 465.828 311.81 463.79 311.81Z" fill="#1B1687"/>
</svg>
