<svg width="80" height="80" viewBox="0 0 80 80" fill="none" xmlns="http://www.w3.org/2000/svg">
<path d="M13.0397 60.5219L12.8144 59.5308L12.1433 58.7676C6.86922 52.7686 4 45.2367 4 37.5C4 19.2555 19.8506 4 39.8438 4C59.8787 4 76 19.2947 76 37.5C76 55.7053 59.8787 71 39.8438 71C35.149 71 30.624 70.1743 26.355 68.5493L23.8968 67.6136L22.0636 69.4998C18.8393 72.8173 14.7608 74.9643 10.437 75.7083C13.2747 71.2692 14.2286 65.7513 13.0397 60.5219Z" fill="black" stroke="white" stroke-width="8"/>
<g filter="url(#filter0_d_1_3873)">
<rect width="8.06303" height="33.5535" rx="4.03151" transform="matrix(0.778947 0.627089 -0.658331 0.752729 43.6892 12.2449)" fill="url(#paint0_linear_1_3873)"/>
</g>
<g filter="url(#filter1_d_1_3873)">
<rect width="8.06303" height="33.3116" rx="4.03151" transform="matrix(0.778947 0.627089 -0.658331 0.752729 51.4319 29.3781)" fill="url(#paint1_linear_1_3873)"/>
</g>
<defs>
<filter id="filter0_d_1_3873" x="13.2825" y="7.85782" width="45.0046" height="47.0871" filterUnits="userSpaceOnUse" color-interpolation-filters="sRGB">
<feFlood flood-opacity="0" result="BackgroundImageFix"/>
<feColorMatrix in="SourceAlpha" type="matrix" values="0 0 0 0 0 0 0 0 0 0 0 0 0 0 0 0 0 0 127 0" result="hardAlpha"/>
<feOffset dy="4"/>
<feGaussianBlur stdDeviation="5"/>
<feComposite in2="hardAlpha" operator="out"/>
<feColorMatrix type="matrix" values="0 0 0 0 0.294118 0 0 0 0 0.266667 0 0 0 0 0.964706 0 0 0 0.2 0"/>
<feBlend mode="normal" in2="BackgroundImageFix" result="effect1_dropShadow_1_3873"/>
<feBlend mode="normal" in="SourceGraphic" in2="effect1_dropShadow_1_3873" result="shape"/>
</filter>
<filter id="filter1_d_1_3873" x="21.1846" y="24.991" width="44.8452" height="46.905" filterUnits="userSpaceOnUse" color-interpolation-filters="sRGB">
<feFlood flood-opacity="0" result="BackgroundImageFix"/>
<feColorMatrix in="SourceAlpha" type="matrix" values="0 0 0 0 0 0 0 0 0 0 0 0 0 0 0 0 0 0 127 0" result="hardAlpha"/>
<feOffset dy="4"/>
<feGaussianBlur stdDeviation="5"/>
<feComposite in2="hardAlpha" operator="out"/>
<feColorMatrix type="matrix" values="0 0 0 0 0.294118 0 0 0 0 0.266667 0 0 0 0 0.964706 0 0 0 0.2 0"/>
<feBlend mode="normal" in2="BackgroundImageFix" result="effect1_dropShadow_1_3873"/>
<feBlend mode="normal" in="SourceGraphic" in2="effect1_dropShadow_1_3873" result="shape"/>
</filter>
<linearGradient id="paint0_linear_1_3873" x1="2.11733" y1="35.289" x2="16.853" y2="15.0645" gradientUnits="userSpaceOnUse">
<stop stop-color="#4B44F6"/>
<stop offset="0.937766" stop-color="#E12BFF"/>
</linearGradient>
<linearGradient id="paint1_linear_1_3873" x1="2.11733" y1="35.0347" x2="16.714" y2="14.8554" gradientUnits="userSpaceOnUse">
<stop stop-color="#4B44F6"/>
<stop offset="0.937766" stop-color="#E12BFF"/>
</linearGradient>
</defs>
</svg>
