<svg width="31" height="31" viewBox="0 0 31 31" fill="none" xmlns="http://www.w3.org/2000/svg">
<rect width="31" height="31" rx="6" fill="#4B44F6"/>
<path fill-rule="evenodd" clip-rule="evenodd" d="M21.3639 10.006C21.8846 9.06426 23.0702 8.72294 24.012 9.24366C24.9537 9.76439 25.2951 10.95 24.7743 11.8917L19.0237 22.2921C18.6091 23.0419 17.773 23.4111 16.9741 23.2676C16.2223 23.1626 15.5694 22.6208 15.3606 21.8415L14.7647 19.6174L14.176 21.8145C14.0204 22.3953 13.6182 22.8441 13.1122 23.0786C13.0331 23.1283 12.9494 23.173 12.8614 23.2119C11.8772 23.6471 10.7265 23.2021 10.2912 22.2179L7.66441 16.2777C7.22918 15.2935 7.67421 14.1428 8.65841 13.7076C9.64261 13.2724 10.7933 13.7174 11.2285 14.7016L11.7384 15.8546L12.7553 12.0593C13.0002 11.1456 13.8554 10.5584 14.7647 10.6189C15.674 10.5584 16.5292 11.1456 16.774 12.0593L17.9016 16.2677L21.3639 10.006ZM8.89705 10.971C8.89705 12.0472 8.02466 12.9195 6.94852 12.9195C5.87238 12.9195 5 12.0472 5 10.971C5 9.89487 5.87238 9.02249 6.94852 9.02249C8.02466 9.02249 8.89705 9.89487 8.89705 10.971Z" fill="white"/>
</svg>
