<svg width="40" height="40" viewBox="0 0 40 40" fill="none" xmlns="http://www.w3.org/2000/svg">
<circle cx="20" cy="20" r="20" fill="#FF2F2F" fill-opacity="0.9"/>
<path d="M21.0587 19.0767V14.9745C21.0587 14.7909 20.9861 14.6148 20.8568 14.485C20.7276 14.3552 20.5523 14.2822 20.3695 14.2822C20.1867 14.2822 20.0114 14.3552 19.8822 14.485C19.7529 14.6148 19.6803 14.7909 19.6803 14.9745V18.7305L17.4896 20.3828C17.4126 20.4355 17.347 20.5034 17.2969 20.5823C17.2467 20.6612 17.213 20.7495 17.1977 20.8418C17.1825 20.9342 17.1861 21.0286 17.2082 21.1196C17.2304 21.2105 17.2707 21.296 17.3266 21.3708C17.3826 21.4456 17.4531 21.5083 17.5339 21.555C17.6146 21.6017 17.704 21.6314 17.7965 21.6425C17.8891 21.6535 17.9829 21.6455 18.0723 21.6191C18.1617 21.5927 18.2448 21.5483 18.3166 21.4887L20.7839 19.6305C20.8695 19.566 20.939 19.4824 20.9868 19.3863C21.0347 19.2902 21.0596 19.1842 21.0596 19.0767H21.0587Z" fill="white"/>
<path d="M19.6932 27.1354C19.4653 26.6914 19.2925 26.2132 19.1924 25.7083C15.9183 25.2892 13.3784 22.4775 13.3784 19.0769C13.3784 15.3865 16.3667 12.3846 20.0405 12.3846C23.7144 12.3846 26.7027 15.3865 26.7027 19.0769C26.7027 19.2163 26.6908 19.3538 26.6816 19.4914C27.153 19.6852 27.5895 19.9455 27.9855 20.2566C28.0425 19.8698 28.0811 19.4785 28.0811 19.0769C28.0811 14.6231 24.4743 11 20.0405 11C15.6068 11 12 14.6231 12 19.0769C12 23.4135 15.4211 26.9517 19.6932 27.1354Z" fill="white"/>
<path d="M29.0002 24.6151C29.0002 22.1966 27.0429 20.2305 24.6354 20.2305C22.2278 20.2305 20.2705 22.1966 20.2705 24.6151C20.2705 27.0335 22.2278 28.9997 24.6354 28.9997C27.0429 28.9997 29.0002 27.0335 29.0002 24.6151ZM21.6489 24.6151C21.6489 22.9609 22.9887 21.6151 24.6354 21.6151C26.2821 21.6151 27.6219 22.9609 27.6219 24.6151C27.6219 26.2692 26.2821 27.6151 24.6354 27.6151C22.9887 27.6151 21.6489 26.2692 21.6489 24.6151Z" fill="white"/>
<path d="M24.6355 25.0914C24.8183 25.0914 24.9936 25.0184 25.1228 24.8886C25.2521 24.7587 25.3247 24.5827 25.3247 24.399V22.7929C25.3247 22.6093 25.2521 22.4332 25.1228 22.3034C24.9936 22.1735 24.8183 22.1006 24.6355 22.1006C24.4527 22.1006 24.2774 22.1735 24.1481 22.3034C24.0189 22.4332 23.9463 22.6093 23.9463 22.7929V24.399C23.9463 24.7812 24.255 25.0914 24.6355 25.0914Z" fill="white"/>
<path d="M24.6353 27.0239C25.0688 27.0239 25.4201 26.6709 25.4201 26.2356C25.4201 25.8002 25.0688 25.4473 24.6353 25.4473C24.2019 25.4473 23.8506 25.8002 23.8506 26.2356C23.8506 26.6709 24.2019 27.0239 24.6353 27.0239Z" fill="white"/>
</svg>
