<svg width="200" height="200" viewBox="0 0 200 200" fill="none" xmlns="http://www.w3.org/2000/svg">
<path d="M200 100C200 155.229 155.228 200 100 200C44.7707 200 0 155.229 0 100C0 44.7707 44.7707 0 100 0C155.228 0 200 44.7707 200 100Z" fill="white"/>
<path d="M126.336 40.0726C125.2 35.6781 120.349 29.4476 101.971 29.4476C73.5773 29.4476 69.5336 33.6531 61.9777 26.3918C55.6027 20.2652 51.8582 49.7511 60.3586 59.1156C56.7715 72.3785 59.6414 85.6625 59.6414 85.6625H139.529C139.528 85.6625 146.232 54.6324 126.337 40.0726H126.336Z" fill="#343445"/>
<path d="M172.197 169.188C169.632 162.903 164.421 157.864 157.69 155.652L125.262 144.996C123.77 144.506 121.238 143.457 120.311 142.189C118.944 140.626 117.786 129.111 117.772 127.54C112.352 132.42 107.812 132.736 99.9223 132.806C92.0332 132.875 87.7319 133.299 82.2248 128.517C82.2388 130.111 80.6151 140.894 79.6857 142.189C78.7564 143.484 76.1833 144.53 74.6687 145.027L42.2531 155.658C35.5375 157.861 30.3312 162.877 27.7559 169.141C45.9594 188.156 71.5957 200 100 200C128.378 200 153.995 188.176 172.197 169.188Z" fill="#4B44F6"/>
<path d="M117.909 138.473C117.716 135.624 117.571 133.249 117.571 133.249H82.462C82.462 133.249 82.2688 135.993 82.0273 139.318C85.2147 142.22 92.845 148.553 100.572 148.553C108.395 148.605 115.253 141.534 117.909 138.473Z" fill="#EABEA0"/>
<path d="M120.372 142.191C118.102 136.426 117.571 125.042 117.571 125.042H82.4621C82.4621 125.042 81.9309 136.378 79.6611 142.191C81.5929 145.793 89.03 151.173 100.137 151.173C111.245 151.173 118.44 145.793 120.372 142.191Z" fill="#FFD3AE"/>
<path d="M135.826 90.0724L139.061 80.2252C139.061 80.2252 144.76 78.7362 147.802 84.5484C150.797 90.3606 142.925 102.369 136.115 103.378C134.232 98.8148 135.826 90.0724 135.826 90.0724ZM64.2071 90.0724L60.9715 80.2252C60.9715 80.2252 55.2729 78.7362 52.2305 84.5484C49.188 90.3606 57.1081 102.369 63.9174 103.378C65.8008 98.8148 64.2071 90.0724 64.2071 90.0724Z" fill="#FFDBBD"/>
<path d="M100.185 41.7972H100.04C86.0353 41.8933 56.818 52.461 60.3434 87.7188C62.2269 107.942 76.763 135.033 100.04 135.177H100.185C123.511 135.033 137.999 107.942 139.882 87.7188C143.407 52.413 114.19 41.8453 100.185 41.7972Z" fill="#FFDBBD"/>
<path d="M61.9761 33.4825C69.5339 40.7442 73.5757 36.5387 101.969 36.5387C120.348 36.5387 125.2 42.7672 126.335 47.1637C136.917 54.9059 139.975 67.3067 140.518 77.2215C141.052 66.9649 139.666 49.8278 126.335 40.0743C125.2 35.6782 120.349 29.4493 101.969 29.4493C73.5757 29.4493 69.5339 33.6532 61.9761 26.3915C57.7862 22.3649 54.7343 33.7219 55.5464 44.6415C56.1351 36.5676 58.7077 30.3407 61.9761 33.4825Z" fill="#343445"/>
<path d="M99.8037 40.405C99.8037 40.405 59.373 35.1655 59.373 82.8128C59.373 82.8128 64.4637 63.1197 76.1424 57.7489C81.582 55.2474 83.5738 61.5853 99.8037 61.5853C116.032 61.5853 118.025 55.247 123.464 57.7493C135.144 63.1197 140.233 82.8132 140.233 82.8132C140.233 35.1655 99.8037 40.405 99.8037 40.405Z" fill="#343445"/>
</svg>
