<svg width="109" height="112" viewBox="0 0 109 112" fill="none" xmlns="http://www.w3.org/2000/svg">
<path d="M66.1042 79.9757C61.4046 76.3095 61.7835 72.3659 61.6052 69.4402C64.5977 66.9721 66.5926 65.3265 71.5804 61.2133C73.488 60.4781 78.861 61.9125 81.6528 66.3137C84.8457 71.3471 84.7689 72.1241 89.7307 73.06C86.6508 76.4381 84.3318 76.6746 81.689 75.5024C86.476 78.2583 84.0439 84.4541 86.5119 87.4467C84.0094 84.4123 77.4942 84.8279 75.0805 80.9527C77.1495 84.2745 74.4461 86.8389 73.5083 88.9532C73.2718 86.6343 71.227 83.9721 66.1042 79.9757Z" fill="url(#paint0_linear_4527_23795)"/>
<path d="M66.4221 71.3329C66.9122 72.6046 68.668 75.6818 71.7695 77.8167" stroke="#503250" stroke-width="1.5" stroke-linecap="round" stroke-linejoin="round"/>
<path d="M72.9637 65.9376C74.1189 66.6609 76.8056 68.9703 78.3111 72.4214" stroke="#503250" stroke-width="1.5" stroke-linecap="round" stroke-linejoin="round"/>
<path d="M38.5809 55.7466C44.1469 62.6147 55.4641 68.3298 59.4591 70.2085C60.3374 70.6215 61.3659 70.475 62.1146 69.8575L71.3946 62.204C72.144 61.586 72.4832 60.6018 72.2434 59.6604C71.1591 55.4031 67.7147 43.3155 62.0224 36.4135C53.8125 26.459 37.689 19.6101 32.2027 24.1348C26.7164 28.6596 30.831 46.1834 38.5809 55.7466Z" fill="#EBFAFF" stroke="#503250" stroke-width="1.5"/>
<path d="M62.1145 69.8578L71.3944 62.2043C72.1439 61.5862 72.4829 60.6013 72.2431 59.6599C71.9321 58.4388 71.427 56.5738 70.7304 54.3719C66.8811 57.5465 58.9011 64.128 54.5449 67.7207C56.5765 68.8211 58.3155 69.671 59.4573 70.208C60.3355 70.621 61.3658 70.4753 62.1145 69.8578Z" fill="#FF7F57" stroke="#503250" stroke-width="1.5"/>
<path d="M32.2018 24.1349C29.5507 26.3213 29.1414 31.5428 30.3008 37.4347C31.5348 38.9309 46.9746 26.1972 45.7406 24.7009C40.1289 22.4311 34.8892 21.9185 32.2018 24.1349Z" fill="white" stroke="#503250" stroke-width="1.5"/>
<path d="M50.9563 79.8973C38.2407 73.6242 37.1456 61.1194 40.6369 58.24C40.6369 58.24 48.7146 64.9861 54.0003 67.3307C51.3317 71.2076 56.2397 82.5037 50.9563 79.8973Z" fill="#4B44F6" stroke="#503250" stroke-width="1.5"/>
<path d="M82.6407 51.2533C78.9027 37.5762 66.8349 34.1208 63.3436 37.0002C63.3436 37.0002 68.4288 46.2143 69.7245 51.8497C74.0385 49.9678 84.1939 56.9362 82.6407 51.2533Z" fill="#4B44F6" stroke="#503250" stroke-width="1.5"/>
<circle cx="49.3167" cy="44.3776" r="7.11146" transform="rotate(-39.5136 49.3167 44.3776)" fill="#49E5DB" stroke="#503250" stroke-width="1.5"/>
<path fill-rule="evenodd" clip-rule="evenodd" d="M67.2175 20.6642C68.4083 22.1081 68.2095 24.2456 66.7743 25.4292C65.3392 26.6129 63.2029 26.4012 62.0121 24.9573C60.8213 23.5135 61.0201 21.376 62.4553 20.1923C63.8905 19.0086 66.0267 19.2203 67.2175 20.6642ZM65.4824 22.0955C65.0855 21.6142 64.3733 21.5437 63.895 21.9382C63.4166 22.3327 63.3503 23.0453 63.7472 23.5265C64.1441 24.0078 64.8563 24.0784 65.3347 23.6838C65.813 23.2893 65.8793 22.5767 65.4824 22.0955Z" fill="#503250"/>
<path fill-rule="evenodd" clip-rule="evenodd" d="M100.143 59.4767C101.334 60.9206 101.135 63.0581 99.7001 64.2417C98.2649 65.4254 96.1287 65.2137 94.9379 63.7698C93.7471 62.326 93.9459 60.1885 95.3811 59.0048C96.8162 57.8211 98.9525 58.0328 100.143 59.4767ZM98.4084 60.9077C98.0115 60.4264 97.2993 60.3559 96.821 60.7504C96.3426 61.1449 96.2764 61.8575 96.6733 62.3387C97.0702 62.82 97.7823 62.8905 98.2607 62.496C98.739 62.1015 98.8053 61.3889 98.4084 60.9077Z" fill="#503250"/>
<path fill-rule="evenodd" clip-rule="evenodd" d="M47.6765 89.34C48.8673 90.7838 48.6685 92.9214 47.2333 94.105C45.7981 95.2887 43.6619 95.077 42.4711 93.6331C41.2803 92.1892 41.4791 90.0517 42.9143 88.8681C44.3494 87.6844 46.4857 87.8961 47.6765 89.34ZM45.9413 90.7705C45.5444 90.2893 44.8322 90.2187 44.3539 90.6132C43.8755 91.0077 43.8092 91.7203 44.2061 92.2016C44.603 92.6828 45.3152 92.7534 45.7936 92.3589C46.2719 91.9643 46.3382 91.2518 45.9413 90.7705Z" fill="#503250"/>
<path fill-rule="evenodd" clip-rule="evenodd" d="M18.3377 31.4122C19.5285 32.8561 19.3297 34.9936 17.8945 36.1773C16.4593 37.3609 14.323 37.1492 13.1322 35.7054C11.9414 34.2615 12.1402 32.124 13.5754 30.9403C15.0106 29.7567 17.1469 29.9684 18.3377 31.4122ZM16.6025 32.8433C16.2056 32.362 15.4934 32.2914 15.0151 32.686C14.5367 33.0805 14.4704 33.7931 14.8673 34.2743C15.2642 34.7556 15.9764 34.8261 16.4547 34.4316C16.9331 34.0371 16.9994 33.3245 16.6025 32.8433Z" fill="#503250"/>
<defs>
<linearGradient id="paint0_linear_4527_23795" x1="67.119" y1="64.8926" x2="85.6292" y2="87.3363" gradientUnits="userSpaceOnUse">
<stop stop-color="#FF9900"/>
<stop offset="1" stop-color="#FFE600"/>
</linearGradient>
</defs>
</svg>
