<svg width="32" height="32" viewBox="0 0 32 32" fill="none" xmlns="http://www.w3.org/2000/svg">
<g clip-path="url(#clip0_29_1922)">
<path d="M10.6328 26.7388L24.1326 13.3893C24.2724 13.2518 24.3686 13.0762 24.4093 12.8844C24.45 12.6926 24.4334 12.493 24.3617 12.3106C24.2899 12.1281 24.166 11.9708 24.0055 11.8581C23.845 11.7455 23.655 11.6825 23.459 11.6771L4.48198 11.1052C4.31724 11.0992 4.1536 11.1343 4.00582 11.2074C3.85803 11.2804 3.73076 11.3891 3.63547 11.5236C3.54019 11.6581 3.47989 11.8142 3.46002 11.9779C3.44015 12.1415 3.46134 12.3075 3.52166 12.461L5.20017 16.7545C5.38323 17.2198 5.88497 17.4845 6.37222 17.3573L20.2131 13.9428L7.7525 20.8655C7.31284 21.1137 7.12597 21.6493 7.30903 22.1146L9.00615 26.4009C9.26609 27.0616 10.1248 27.2503 10.6328 26.7388Z" fill="#9A9AAF"/>
</g>
<defs>
<clipPath id="clip0_29_1922">
<rect width="24" height="24" fill="white" transform="translate(0 9) rotate(-21.4766)"/>
</clipPath>
</defs>
</svg>
