<svg width="35" height="33" viewBox="0 0 35 33" fill="none" xmlns="http://www.w3.org/2000/svg">
<path d="M18.1069 27.1712L26.3447 32.2891C27.4071 32.9448 28.7147 31.9692 28.4043 30.7697L26.0178 21.5895C25.9533 21.3349 25.9635 21.0679 26.0475 20.8188C26.1313 20.5699 26.2853 20.3491 26.4919 20.1821L33.8798 14.1525C34.8441 13.3688 34.3537 11.7855 33.0951 11.7055L23.4516 11.0977C23.1886 11.0827 22.9356 10.9931 22.7237 10.8397C22.5118 10.6863 22.3501 10.4759 22.2585 10.2341L18.6626 1.37371C18.5674 1.11764 18.3939 0.896479 18.166 0.740136C17.9379 0.583872 17.6661 0.5 17.3877 0.5C17.1092 0.5 16.8375 0.583872 16.6094 0.740136C16.3813 0.896479 16.208 1.11764 16.1128 1.37371L12.5169 10.2341C12.4253 10.4759 12.2636 10.6863 12.0516 10.8397C11.8398 10.9931 11.5868 11.0827 11.3238 11.0977L1.68027 11.7055C0.421678 11.7855 -0.0686699 13.3688 0.895586 14.1525L8.28353 20.1821C8.49008 20.3491 8.64411 20.5699 8.72791 20.8188C8.81187 21.0679 8.82208 21.3349 8.7576 21.5895L6.55103 30.098C6.17513 31.5374 7.74418 32.7049 9.00277 31.9213L16.6685 27.1712C16.8835 27.0374 17.1329 26.9664 17.3877 26.9664C17.6424 26.9664 17.8919 27.0374 18.1069 27.1712Z" fill="#FFBD15"/>
</svg>
