<?xml version="1.0" encoding="UTF-8"?>
<!DOCTYPE svg PUBLIC "-//W3C//DTD SVG 1.1//EN" "http://www.w3.org/Graphics/SVG/1.1/DTD/svg11.dtd">
<svg xmlns="http://www.w3.org/2000/svg" version="1.1" width="512px" height="512px" style="shape-rendering:geometricPrecision; text-rendering:geometricPrecision; image-rendering:optimizeQuality; fill-rule:evenodd; clip-rule:evenodd" xmlns:xlink="http://www.w3.org/1999/xlink">
<g><path style="opacity:0.973" fill="#445963" d="M 311.5,16.5 C 316.034,16.267 320.368,17.1003 324.5,19C 368.631,38.7357 394.297,72.5691 401.5,120.5C 401.983,129.108 397.983,132.275 389.5,130C 388.333,128.833 387.167,127.667 386,126.5C 379.497,79.95 354.33,48.45 310.5,32C 305.263,26.5207 305.596,21.354 311.5,16.5 Z"/></g>
<g><path style="opacity:0.987" fill="#465a63" d="M 221.5,19.5 C 234.26,19.1309 244.76,23.7975 253,33.5C 284.667,84.5 316.333,135.5 348,186.5C 359.394,202.232 373.56,214.732 390.5,224C 396.304,226.186 400.471,224.353 403,218.5C 406.19,189.883 412.19,161.883 421,134.5C 434.842,110.544 455.342,101.71 482.5,108C 487.312,108.989 491.479,111.156 495,114.5C 495.667,117.5 495.667,120.5 495,123.5C 486.22,151.345 481.387,179.845 480.5,209C 480.654,217.188 481.154,225.355 482,233.5C 487.353,264.303 491.019,295.303 493,326.5C 497.563,364.843 485.73,397.01 457.5,423C 438.602,440.769 418.602,457.102 397.5,472C 354.591,497.189 311.258,497.856 267.5,474C 254.62,466.45 242.287,458.116 230.5,449C 209.5,430 188.5,411 167.5,392C 121.755,365.932 75.7552,340.266 29.5,315C 16.927,306.286 12.427,294.453 16,279.5C 23.6257,259.437 37.7923,252.27 58.5,258C 98.3667,278.6 138.367,298.6 178.5,318C 133.5,283.667 88.5,249.333 43.5,215C 30.4491,204.308 26.2824,190.808 31,174.5C 41.8252,154.08 57.9919,148.247 79.5,157C 127.343,191.555 175.343,225.555 223.5,259C 178.635,212.469 134.135,165.636 90,118.5C 79.8494,98.9057 83.0161,81.7391 99.5,67C 113.331,58.7909 127.331,58.4575 141.5,66C 186.364,111.863 230.864,158.03 275,204.5C 275.315,203.092 274.982,201.759 274,200.5C 246.748,155.666 219.748,110.666 193,65.5C 188.079,40.9784 197.579,25.6451 221.5,19.5 Z"/></g>
<g><path style="opacity:1" fill="#f0c24e" d="M 374.5,234.5 C 367.426,236.51 360.76,235.343 354.5,231C 336.333,219.5 321.5,204.667 310,186.5C 279.406,136.97 248.573,87.6371 217.5,38.5C 225.429,34.9736 232.596,36.3069 239,42.5C 271,93.8333 303,145.167 335,196.5C 340.793,203.961 346.959,211.128 353.5,218C 360.4,223.745 367.4,229.245 374.5,234.5 Z"/></g>
<g><path style="opacity:1" fill="#fed768" d="M 217.5,38.5 C 248.573,87.6371 279.406,136.97 310,186.5C 321.5,204.667 336.333,219.5 354.5,231C 360.76,235.343 367.426,236.51 374.5,234.5C 378.598,236.048 382.598,237.881 386.5,240C 404.874,243.388 416.04,235.888 420,217.5C 422.526,191.536 427.859,166.203 436,141.5C 440.946,132.281 448.446,126.281 458.5,123.5C 459.376,123.369 460.043,123.702 460.5,124.5C 449.096,159.306 444.596,194.972 447,231.5C 450.001,253.174 453.001,274.841 456,296.5C 466.417,341.579 454.25,379.079 419.5,409C 409.167,418 398.833,427 388.5,436C 368.058,453.718 344.391,464.718 317.5,469C 311.175,469.5 304.842,469.666 298.5,469.5C 282.23,464.055 267.23,456.222 253.5,446C 230.606,427.446 208.606,407.779 187.5,387C 182.833,383.333 178.167,379.667 173.5,376C 127.5,350.333 81.5,324.667 35.5,299C 31.7576,294.483 30.591,289.316 32,283.5C 32.9354,280.405 34.7687,278.071 37.5,276.5C 82.4467,299.307 127.447,322.14 172.5,345C 177.437,346.369 181.604,345.203 185,341.5C 185.483,340.552 185.649,339.552 185.5,338.5C 192.899,337.601 197.732,333.601 200,326.5C 201.315,320.796 199.982,315.796 196,311.5C 191.26,307.215 186.427,303.048 181.5,299C 138.32,266.576 95.3204,233.909 52.5,201C 45.1451,194.276 43.6451,186.442 48,177.5C 49.0545,174.944 50.8878,173.277 53.5,172.5C 106.12,210.482 159.12,247.982 212.5,285C 217.994,286.018 221.661,283.852 223.5,278.5C 234.322,278.178 240.656,272.678 242.5,262C 242.274,258.988 241.441,256.155 240,253.5C 195.732,205.229 150.732,157.562 105,110.5C 96.9524,96.9318 99.7857,86.2651 113.5,78.5C 162.323,129.49 211.656,179.99 261.5,230C 268.5,232.152 272.5,229.652 273.5,222.5C 287.952,223.548 294.452,216.881 293,202.5C 292.197,199.756 291.197,197.089 290,194.5C 263,149.833 236,105.167 209,60.5C 205.663,50.6667 208.496,43.3333 217.5,38.5 Z"/></g>
<g><path style="opacity:0.97" fill="#455963" d="M 304.5,57.5 C 311.451,58.3042 317.784,60.8042 323.5,65C 345.462,81.2381 358.795,102.905 363.5,130C 362.246,137.467 357.912,140.134 350.5,138C 349.333,136.833 348.167,135.667 347,134.5C 344.041,113.077 334.208,95.5766 317.5,82C 311.667,78.1667 305.833,74.3333 300,70.5C 298.243,64.8252 299.743,60.4918 304.5,57.5 Z"/></g>
<g><path style="opacity:1" fill="#f0c24e" d="M 273.5,222.5 C 272.5,229.652 268.5,232.152 261.5,230C 211.656,179.99 162.323,129.49 113.5,78.5C 119.976,76.8828 126.309,77.3828 132.5,80C 177.167,126.333 221.833,172.667 266.5,219C 268.86,220.18 271.193,221.347 273.5,222.5 Z"/></g>
<g><path style="opacity:1" fill="#f0c24e" d="M 458.5,123.5 C 463.985,122.348 469.651,122.182 475.5,123C 476.428,123.388 477.095,124.055 477.5,125C 465.616,162.366 461.783,200.532 466,239.5C 473.664,277.81 476.998,316.476 476,355.5C 474.225,370.837 468.558,384.504 459,396.5C 443.791,412.71 427.624,427.877 410.5,442C 391.91,457.962 370.577,468.628 346.5,474C 335.833,474.667 325.167,474.667 314.5,474C 308.876,473.098 303.542,471.598 298.5,469.5C 304.842,469.666 311.175,469.5 317.5,469C 344.391,464.718 368.058,453.718 388.5,436C 398.833,427 409.167,418 419.5,409C 454.25,379.079 466.417,341.579 456,296.5C 453.001,274.841 450.001,253.174 447,231.5C 444.596,194.972 449.096,159.306 460.5,124.5C 460.043,123.702 459.376,123.369 458.5,123.5 Z"/></g>
<g><path style="opacity:1" fill="#efc14e" d="M 223.5,278.5 C 221.661,283.852 217.994,286.018 212.5,285C 159.12,247.982 106.12,210.482 53.5,172.5C 58.763,169.108 64.4296,168.608 70.5,171C 117.833,205 165.167,239 212.5,273C 215.914,275.374 219.581,277.207 223.5,278.5 Z"/></g>
<g><path style="opacity:1" fill="#efc14e" d="M 185.5,338.5 C 185.649,339.552 185.483,340.552 185,341.5C 181.604,345.203 177.437,346.369 172.5,345C 127.447,322.14 82.4467,299.307 37.5,276.5C 38.343,274.827 39.6763,273.66 41.5,273C 45.5935,272.233 49.5935,272.566 53.5,274C 94.8021,294.985 136.135,315.985 177.5,337C 180.063,338.079 182.729,338.579 185.5,338.5 Z"/></g>
<g><path style="opacity:0.971" fill="#455963" d="M 54.5,361.5 C 57.6492,361.211 60.6492,361.711 63.5,363C 78.5843,388.395 100.918,403.062 130.5,407C 135.3,414.763 133.3,419.93 124.5,422.5C 92.3978,418.542 67.8978,402.876 51,375.5C 48.2672,369.722 49.4339,365.056 54.5,361.5 Z"/></g>
<g><path style="opacity:0.972" fill="#455963" d="M 18.5,380.5 C 21.3198,380.248 23.9865,380.748 26.5,382C 48.8832,423.662 83.8832,444.662 131.5,445C 139.088,449.924 139.421,455.257 132.5,461C 84.6089,462.471 47.1089,443.638 20,404.5C 16.8351,399.67 14.3351,394.503 12.5,389C 13.1868,385.16 15.1868,382.327 18.5,380.5 Z"/></g>
</svg>
